<?xml version="1.0" encoding="UTF-8"?>
<svg id="Layer_2" data-name="Layer 2" xmlns="http://www.w3.org/2000/svg" viewBox="0 0 303.71 237.43">
  <defs>
    <style>
      .cls-1 {
        fill: #0055b8;
      }

      .cls-2 {
        fill: #58c1e9;
      }
    </style>
  </defs>
  <g id="Over_White" data-name="Over White">
    <path class="cls-1" d="m102.66,134.99c1.73-8.88-5.6-16.59-14.41-15.51-5.78.71-10.46,5.35-11.23,11.13-1.16,8.8,6.48,16.19,15.38,14.54,5.14-.95,9.26-5.04,10.26-10.17Zm-4.09-1.07c-6.3-8.69-17.14-5.41-17.14-5.41,2.02-3.82,8.19-5.97,12.85-3.44,4.66,2.52,4.29,8.85,4.29,8.85Zm205.14,68.45c-54.64-44.79-120.92-.03-160.18,21.83-39.26,21.86-55.85,10.04-55.85,10.04,25.49-9.19,78.08-56.94,134.41-64.04,56.33-7.1,81.62,32.17,81.62,32.17Zm-252.92-44.24c-4.61,9.12,2.15,31.99,56.03,24.07,0,0-26.47,8.05-47.34,4.69-20.87-3.35-29.6-22.32-23.02-36.33,6.59-14,31.75-21.08,32.35-9.32.6,11.75-13.42,7.78-18.02,16.89ZM1.26,179.53c6.25,25.97,39.03,31.74,66.46,26.72,26.73-4.89,68.42-28.84,68.42-28.84-64.73,25.18-95.3,17.95-106.98,3.21-11.69-14.74-8.18-33.32-8.18-33.32-7.32-4.44-25.97,6.25-19.72,32.23Zm13-24.58c-2.09,29.69,30.17,42.23,30.17,42.23-22.43-.67-36.9-14.19-37.5-26.92-.6-12.73,7.33-15.31,7.33-15.31Zm15.74,58.49s9.5,26.91,39.08,19.75c25.16-6.09,44.02-20.28,73.6-38.85,33.05-20.75,67.02-27.46,67.02-27.46-32.26-10.91-92.49,29.3-124.85,39.93-32.35,10.63-54.86,6.62-54.86,6.62Zm11.72,6.58c17.94,2.69,55.21-11.18,55.21-11.18,0,0-21.62,17.53-36.64,19.1-15.02,1.57-18.57-7.91-18.57-7.91Zm51.73-57.48c.01-2.61,2.14-4.73,4.75-4.71s4.73,2.14,4.71,4.76-2.14,4.72-4.75,4.71-4.72-2.14-4.71-4.75Zm-18.98,8.2c-4.24-.02-7.66-3.47-7.64-7.7s3.47-7.66,7.71-7.64c4.23.02,7.65,3.47,7.64,7.7s-3.47,7.65-7.7,7.64Zm-36.97-35.41c-2.61-.01-4.72-2.14-4.71-4.75s2.14-4.72,4.75-4.71,4.72,2.14,4.71,4.75-2.14,4.72-4.75,4.71Zm-3.33-19.01c-1.69,0-3.06-1.38-3.05-3.07s1.38-3.06,3.07-3.05,3.06,1.38,3.05,3.07-1.38,3.06-3.07,3.05Zm30.53,9.6c-5.5-.02-9.93-4.5-9.91-10,.02-5.5,4.5-9.94,10-9.91,5.5.02,9.94,4.5,9.91,10s-4.5,9.94-10,9.91Z"/>
    <path class="cls-2" d="m243.69,150.6c-.03.29-.27.52-.57.52-1.5,0-3,.01-4.5.03-.31,0-.57-.24-.58-.55-.35-9.6-.7-18.19-1.06-27.79-.44-12.51-.47-23.83-.21-35.75,0-.31.25-.55.56-.56,2.72-.07,7.43-.11,10.15-.11.32,0,.58.27.57.59-.29,11.85-1.01,23.9-1.87,35.54-.84,9.69-1.67,18.38-2.51,28.07Zm-25.23-91.7c.19-10.56.18-21.2.16-31.75,2.03,18.08,4.03,36.18,6,54.32.04.38.38.67.76.65,2.18-.12,4.36-.23,6.54-.32.35-.01.64-.28.69-.63,4.17-28.49,6.34-41.9,8.41-55.21-.54,10.59-.87,21.18-1.12,31.86-.17,7.66-.35,15.32-.52,22.98,0,.41.33.75.74.74,2.28-.05,4.57-.07,6.85-.08.39,0,.71-.31.72-.71.65-26.67,1.31-53.34,1.96-80.01.01-.41-.32-.75-.74-.75-3.73.04-7.46.13-11.19.28-.36.01-.65.29-.7.64-4.62,36.35-6.5,48.23-8.11,59.79-1.14-11.41-2.46-23.02-5.61-58.91-.03-.4-.38-.7-.78-.67-3.63.26-7.26.57-10.89.91-.37.03-.66.34-.66.72-.42,26.56-.83,53.12-1.25,79.68,0,.43.36.77.79.73,2.29-.2,4.57-.38,6.86-.54.37-.03.67-.33.67-.71.13-7.67.27-15.35.4-23.02Zm-7.6,104.57c.3.1.57.24.82.41.39.26.9.02.91-.45.17-10.41.35-20.82.52-31.23,2.51-.19,5.03-.36,7.54-.51-.21,11.5-.42,23-.64,34.5,0,.35.31.63.65.58.32-.05.65-.1.97-.14,2.23-.28,4.46-.49,6.67-.64.29-.02.52-.26.53-.55.53-26.01,1.07-52.03,1.6-78.04,0-.33-.27-.6-.6-.58-2.62.12-5.23.26-7.85.42-.3.02-.53.26-.54.56l-.64,34.82c-2.52.15-5.04.32-7.56.51.19-11.56.38-23.12.58-34.68,0-.34-.28-.61-.62-.58-2.62.21-5.23.44-7.85.68-.29.03-.51.27-.52.56-.35,24.08-.7,48.17-1.05,72.25,0,.28.21.53.49.57,2.32.34,4.52.85,6.57,1.55Zm-98.93-67.44c-2.52.33-5.03.66-7.55.97-.43.05-.81-.28-.82-.72-.25-26.2-.5-52.4-.76-78.6,0-.37.27-.68.63-.73,4.11-.54,8.22-1.11,12.33-1.7,10.6-1.53,15,3.18,14.22,15.1v7.44c.97,12.1-3.34,18.06-13.84,19.53-1.28.18-2.57.36-3.85.53.09,12.48.19,24.96.28,37.43,0,.37-.27.68-.63.73Zm.11-71.17c.06,8.08.12,16.17.18,24.25,1.29-.18,2.57-.35,3.86-.53,3.46-.49,5.04-2.37,5.02-6.08-.02-4.52-.05-9.03-.07-13.55-.02-3.61-1.52-5.14-5.2-4.62-1.26.18-2.52.36-3.78.53Zm-35.12,74.49c-.04.35-.31.62-.66.65-2.44.21-4.89.4-7.33.57-.45.03-.83-.36-.78-.81,2.95-26.33,5.97-52.73,9.05-79.19.04-.34.31-.61.65-.64,3.13-.3,6.26-.63,9.39-.98.39-.04.74.23.8.62,3.64,25.78,7.22,51.57,10.73,77.37.06.4-.23.78-.64.82-2.55.3-5.1.59-7.66.86-.39.04-.75-.24-.8-.63-.51-3.82-1.02-7.65-1.54-11.47-3.3.35-6.61.67-9.91.97-.5,4.02-.91,7.94-1.31,11.85Zm2.07-20.17c2.69-.25,5.37-.51,8.06-.79-1.54-11.8-3.09-23.78-4.46-35.89-1.01,12.35-2.22,24.61-3.6,36.68Zm-38.79,22.49c-.34,0-.62-.27-.63-.61-.66-26.08-1.31-52.15-1.97-78.23,0-.35.27-.63.61-.64,4.21-.04,8.42-.15,12.63-.33,10.18-.46,13.38,4.92,12.49,17.68l.31,9.73c.62,5.32-.92,9.31-4.06,10.6,3.23.58,6.01,3.58,5.42,9.95.09,4.95.19,9.87.28,14.83,1.08,11.23-3.2,16.45-12.7,16.79-4.13.14-8.27.22-12.4.23Zm15.64-32.5c-.07-3.29-1.08-4.59-3.95-4.48-1.38.05-2.76.1-4.15.14.21,9.28.43,18.56.64,27.84,1.34-.03,2.68-.07,4.02-.12,2.65-.09,3.89-1.71,3.82-4.8-.13-6.19-.26-12.38-.39-18.57Zm-8.87-38.17l.6,26c1.38-.04,2.77-.09,4.15-.14,2.57-.1,3.63-1.42,3.57-4.32-.12-5.77-.24-11.54-.36-17.32-.07-3.29-1.19-4.49-3.88-4.37-1.36.06-2.72.11-4.08.15ZM171.96,6.86c-2.57.37-5.14.74-7.72,1.12-.36.05-.62.36-.62.72-.12,26.4-.25,52.81-.37,79.21,0,.44.39.78.83.72,2.52-.35,5.03-.7,7.55-1.04.36-.05.63-.35.63-.71.18-26.43.36-52.86.54-79.29,0-.45-.39-.79-.83-.73Zm-30.87,13.72l.04,70.51c0,.44.39.78.83.72,2.52-.37,5.03-.73,7.55-1.1.36-.05.62-.36.62-.72l.11-70.81c2.65-.4,5.29-.8,7.94-1.2.35-.05.62-.36.62-.72,0-2.55.02-5.09.03-7.64,0-.45-.4-.79-.84-.72-8.29,1.25-16.58,2.53-24.87,3.79-.36.05-.62.36-.62.72,0,2.54.01,5.07.02,7.61,0,.44.4.78.84.72,2.57-.39,5.15-.78,7.72-1.17Zm-5.98,153.41c-12,4.83-20,7.22-22.35,7.9-.36.11-.72-.16-.72-.54-.05-6.54-.42-54.88-.61-79.91,0-.28.21-.52.49-.55,4.17-.55,8.34-1.12,12.51-1.7,8.84-1.24,12.23,2.79,12.14,12.7,0,5.18.02,10.36.03,15.54.08,4.55-1.47,8.02-4.24,9.41,3.04.32,5.63,2.98,5.19,8.98,0,5.31,0,10.6-.01,15.92.37,5.33-.43,9.35-2.38,12.22l-.04.03Zm-14.5-38.95c1.36-.18,2.71-.37,4.07-.55,2.52-.34,3.58-1.76,3.57-4.69-.02-5.82-.04-11.64-.06-17.47-.01-3.32-1.09-4.43-3.72-4.07-1.33.19-2.67.37-4,.55.05,8.74.1,17.48.15,26.22Zm7.96,30.25c-.02-6.25-.05-12.49-.07-18.74-.01-3.32-.98-4.55-3.79-4.17-1.35.18-2.71.37-4.06.55.05,9.36.1,18.72.16,28.08,1.31-.17,2.63-.34,3.94-.52,2.59-.34,3.84-2.08,3.82-5.2Zm11.24,12.33c3.38-27.16,6.94-54.49,10.45-81.72.03-.25.23-.46.49-.49,3.15-.45,6.3-.91,9.45-1.35.32-.04.61.18.65.5,2.86,23.8,5.67,47.63,8.43,71.5.03.27-.13.52-.39.6-2.5.8-5.02,1.67-7.56,2.6-.35.13-.72-.1-.76-.47-.25-2.17-.49-4.35-.74-6.52-3.24.44-6.47.88-9.71,1.32-.47,3.49-.88,6.9-1.28,10.3-.02.2-.15.37-.33.45-2.35,1-6.75,2.97-8.25,3.6-.23.1-.47-.09-.44-.33Zm11.18-22.46c2.63-.36,5.27-.73,7.9-1.08-1.3-11.87-2.62-23.92-3.75-36.1-1.2,12.5-2.58,24.93-4.15,37.18Zm95.79,5.43c.01-3.27-2.62-5.93-5.89-5.94s-5.93,2.62-5.94,5.89c-.01,3.26,2.63,5.93,5.89,5.94,3.26.01,5.93-2.62,5.94-5.89ZM192.15,3.28c-9.05,1.12-13.37,6.34-13.17,15.9,0,2.25-.01,4.5-.02,6.74h0s0,.71.01,1.95c.02.66.07,1.48.17,2.46.08.97.25,2.08.51,3.29.12.6.31,1.23.48,1.87.22.63.42,1.3.69,1.96.28.66.54,1.34.9,2,.17.33.35.67.52,1.01.2.32.4.65.6.98.8,1.32,1.77,2.56,2.82,3.75,1.06,1.17,2.21,2.26,3.41,3.25l1.46,1.26c.29.24.42.39.59.57l.51.51c.68.76,1.33,1.55,1.77,2.33.5.78.81,1.57,1.08,2.35.25.78.4,1.57.5,2.35.09.79.13,1.55.13,2.28.01.72.02,1.3.01,1.88-.02,1.23-.03,2.05-.03,2.05h0c0,2.4-.02,4.8-.03,7.2.27,3.48-.98,5.44-4.04,5.79-2.55.3-3.81-1.22-3.78-3.87.06-5.46.11-10.92.17-16.37,0-.44-.38-.79-.82-.73-2.44.3-4.88.61-7.31.93-.36.05-.63.35-.63.72-.05,5.52-.09,11.04-.14,16.55-.07,8.55,3.81,12.82,12.7,11.79,9.46-1.08,13.16-6.71,12.9-16.11,0-1.97.01-3.93.02-5.9h0s0-.65.02-1.78c0-.6.03-1.35.01-2.27,0-.91-.06-2.01-.2-3.23-.15-1.23-.41-2.61-.86-4.04-.47-1.42-1.09-2.91-1.95-4.27-.82-1.41-1.84-2.66-2.94-3.87l-.91-.91c-.3-.3-.64-.63-.87-.82l-1.6-1.38c-.88-.74-1.69-1.52-2.4-2.32-.7-.81-1.35-1.64-1.85-2.49-.13-.21-.26-.42-.38-.63-.11-.22-.21-.43-.32-.64-.23-.41-.38-.85-.56-1.26-.17-.41-.28-.84-.42-1.23-.1-.41-.22-.8-.29-1.19-.16-.78-.27-1.5-.32-2.18-.06-.67-.08-1.27-.09-1.79,0-1.12,0-1.77,0-1.77h0c.03-2.94.06-5.88.09-8.83.03-2.95,1.24-4.38,3.93-4.71,2.79-.34,3.86,1.31,3.83,3.87-.06,4.61-.11,9.23-.17,13.84,0,.44.37.78.81.73,2.35-.27,4.71-.52,7.06-.77.37-.04.65-.34.65-.71.07-4.71.13-9.42.2-14.13.13-9.06-3.3-13.07-12.47-11.95Zm-1.72,114.05c2.4-.27,4.8-.53,7.2-.78.29-.03.51-.27.51-.56.06-4.75.12-9.51.19-14.26.12-9.05-3.24-13.07-12.24-11.99-8.87,1.08-13.09,6.27-12.89,15.83,0,2.26,0,4.53,0,6.79h0s0,.08,0,.21c0,.06,0,.11,0,.17,0,0,0,0,0,0,0,.32.01.83,0,1.52,0,.65.01,1.47.09,2.43.06.96.2,2.07.44,3.28.11.6.29,1.23.44,1.88.21.64.39,1.31.66,1.97.27.66.53,1.35.88,2.01.17.33.34.67.51,1.01.19.33.39.66.59.99.79,1.33,1.76,2.58,2.8,3.77.52.6,1.09,1.13,1.64,1.7.56.55,1.17,1.04,1.75,1.55l1.45,1.25c.3.24.38.38.57.56l.51.5c.68.77,1.32,1.55,1.76,2.33.49.77.8,1.57,1.07,2.34.25.78.42,1.52.52,2.29.09.79.23,1.58.23,2.31,0,.71.05,1.36.04,1.94,0,.1,0,.19,0,.29-.01,1.07-.02,1.68-.02,1.68h0c-.03,2.79-.05,5.58-.08,8.36-.02.97-.19,1.78-.5,2.45-.19.41.14.85.59.8,2.78-.35,5.49-.54,8.11-.54.11,0,.22,0,.32,0,.21-1.26.33-2.61.33-4.07.03-2.33.05-4.65.08-6.98h.02s0-.64.02-1.77c0-1.19.12-3.01-.15-5.47-.15-1.23-.4-2.6-.85-4.02-.46-1.41-1.08-2.9-1.93-4.26-.81-1.4-1.83-2.66-2.91-3.87l-.91-.91c-.29-.28-.65-.65-.88-.83l-1.6-1.38c-.42-.38-.87-.73-1.26-1.12-.38-.4-.79-.77-1.14-1.17-.7-.81-1.34-1.62-1.84-2.46-.13-.21-.25-.42-.38-.62-.11-.21-.21-.42-.31-.63-.23-.41-.38-.84-.55-1.25-.17-.41-.27-.83-.41-1.22-.09-.41-.21-.8-.28-1.19-.15-.77-.25-1.5-.29-2.18-.05-.67-.06-1.28-.07-1.81,0-.28,0-.53,0-.75,0,0,0,0,0,0,.03-3.3.06-6.61.09-9.91.03-2.95,1.21-4.37,3.84-4.69,2.73-.33,3.78,1.32,3.76,3.88-.05,4.67-.1,9.34-.15,14.01,0,.34.29.61.63.57Zm-9.07,42.2l.15-16.54c0-.35-.3-.62-.64-.57-2.48.3-4.97.61-7.45.93-.28.04-.5.28-.5.56l-.12,16.68c-.01,1.53.11,2.91.36,4.16.06.32.4.51.72.42,2.66-.75,5.29-1.4,7.87-1.94.4-.08.59-.54.35-.87-.5-.67-.74-1.64-.73-2.83Z"/>
  </g>
</svg>