<?xml version="1.0" encoding="UTF-8"?>
<svg id="Layer_2" data-name="Layer 2" xmlns="http://www.w3.org/2000/svg" viewBox="0 0 209 209">
  <defs>
    <style>
      .cls-1 {
        fill: #84b8b8;
      }

      .cls-2 {
        fill: #a7b657;
      }

      .cls-3 {
        fill: #3c3e45;
      }
    </style>
  </defs>
  <g id="Layer_1-2" data-name="Layer 1">
    <g>
      <path class="cls-3" d="m104.5,209C46.88,209,0,162.12,0,104.5S46.88,0,104.5,0s104.5,46.88,104.5,104.5-46.88,104.5-104.5,104.5Zm0-197.52C53.21,11.48,11.48,53.21,11.48,104.5s41.73,93.02,93.02,93.02,93.02-41.73,93.02-93.02S155.79,11.48,104.5,11.48Z"/>
      <path class="cls-3" d="m86.13,116.13c-11.86-18.8,8.95-41.58,29.06-30.72,2.77,1.55,3.76,5.05,2.21,7.81-1.55,2.77-5.05,3.76-7.81,2.21-5.18-2.82-11.49-.81-14.14,4.24-4.9,9.31,5.74,19.29,14.83,13.46,2.64-1.75,6.21-1.03,7.96,1.61,6.64,10.02-20.78,19.34-32.1,1.38Z"/>
      <path class="cls-2" d="m104.44,148.93c-34.03,0-55.59-36.99-38.48-66.64,13.91-24.1,46.45-29.67,67.57-11.36,2.4,2.08,2.66,5.7.58,8.1-2.08,2.4-5.7,2.66-8.1.58-21.31-18.46-54.52-3.22-54.52,24.9s34.35,43.52,55.28,24.22c2.33-2.15,5.96-2,8.11.33,2.15,2.33,2,5.96-.33,8.11-8.25,7.61-19.03,11.77-30.12,11.77Z"/>
      <path class="cls-1" d="m55.14,148.77c-2.12-2.36-1.92-5.99.44-8.11,2.36-2.12,5.99-1.92,8.11.44,33.37,37.17,95.55,13.64,95.55-36.6S96.87,30.43,63.44,68.17c-2.1,2.37-5.73,2.59-8.11.49-2.37-2.1-2.59-5.73-.49-8.11,40.22-45.39,115.87-17.03,115.87,43.95s-74.99,89.48-115.58,44.27Z"/>
    </g>
  </g>
</svg>