<?xml version="1.0" encoding="UTF-8"?>
<svg id="Layer_2" data-name="Layer 2" xmlns="http://www.w3.org/2000/svg" viewBox="0 0 590.54 459.93">
  <defs>
    <style>
      .cls-1 {
        fill: #94c93d;
      }

      .cls-2 {
        fill: #2a2c2b;
      }
    </style>
  </defs>
  <g id="Layer_1-2" data-name="Layer 1">
    <g>
      <path class="cls-2" d="m430.8,411.31c-2.07-2.07-1.81-5.45.5-7.25,53.39-41.52,85.17-106.27,85.17-174.07s-32.32-133.59-86.77-175.42c-2.33-1.79-2.6-5.18-.52-7.26L475.04,1.44c1.77-1.77,4.61-1.93,6.55-.35,69.31,56.48,108.95,139.62,108.95,228.9s-39.06,171.04-107.32,227.49c-1.93,1.6-4.8,1.45-6.58-.33l-45.84-45.84Z"/>
      <path class="cls-2" d="m115.47,458.49c-1.77,1.77-4.62,1.93-6.55.35C39.64,402.37,0,319.24,0,229.99S39.63,57.62,108.92,1.13c1.94-1.58,4.79-1.42,6.55.35l45.93,45.94c2.08,2.08,1.81,5.48-.53,7.27-54.41,41.57-86.8,106.75-86.8,175.29s32.3,133.56,86.72,175.39c2.33,1.79,2.6,5.19.52,7.26l-45.85,45.85Z"/>
    </g>
    <path class="cls-1" d="m433.83,162.44c0-1.85-.7-3.69-2.11-5.1l-65.02-65.02c-2.82-2.82-7.38-2.82-10.2,0l-61.22,61.23-61.23-61.23c-1.41-1.41-3.26-2.11-5.1-2.11-.92,0-1.85.18-2.71.53-.87.35-1.68.88-2.39,1.58l-65.02,65.02c-2.82,2.82-2.82,7.39,0,10.2l1.56,1.56,59.67,59.66-61.23,61.23c-2.82,2.82-2.82,7.39,0,10.2l65.02,65.02c.7.7,1.52,1.23,2.39,1.58.87.35,1.79.53,2.71.53,1.85,0,3.69-.7,5.1-2.11l61.23-61.23,61.22,61.23c2.82,2.82,7.39,2.82,10.2,0l65.02-65.02c1.41-1.41,2.11-3.26,2.11-5.1s-.7-3.69-2.11-5.1l-61.23-61.23,61.23-61.22c1.41-1.41,2.11-3.25,2.11-5.1Z"/>
  </g>
</svg>