<?xml version="1.0" encoding="UTF-8"?>
<svg id="Layer_2" data-name="Layer 2" xmlns="http://www.w3.org/2000/svg" viewBox="0 0 198.71 200.38">
  <defs>
    <style>
      .cls-1 {
        fill: #f26724;
      }

      .cls-2 {
        fill: #ffce06;
      }
    </style>
  </defs>
  <g id="KS_Circle_Mark" data-name="KS Circle Mark">
    <g id="Round">
      <path class="cls-1" d="m70.84,111.48l-8.54,16.79c.13,8.92.25,16.9.25,16.9-13.25-.13-20.89.13-20.89.13.25-50.45,0-90.95,0-90.95,12.48.38,20.64-1.51,20.64-1.51-.13,17.2-.13,35.55-.13,47.78,14.52-31.47,24.1-52.31,24.1-52.31,14.52.76,22.55.76,22.55.76-10.32,20.38-19.64,39.7-23.2,47.22,11.97,29.56,25.5,58.94,25.5,58.94-13.89.38-22.68,1.15-22.68,1.15-5.73-15.54-14.54-37.9-17.6-44.9Z"/>
      <path class="cls-1" d="m101.86,112.23s8.15.13,21.66-.13c-.51,11.72,4.51,17.71,11.9,17.71,5.35,0,9.35-2.68,9.35-9.3,0-5.73-4.95-9.55-18.71-14.52-16.56-6.12-23.82-13.38-23.82-27.9,0-16.56,11.85-25.22,30.19-25.22,21.28,0,31.16,12.1,30.65,33.38,0,0-8.92-.64-21.02-.76.89-11.21-2.49-16.82-9.63-16.82-5.48,0-8.15,3.82-8.15,9.68s4.08,9.81,15.41,13.76c20.89,7.13,27.62,14.91,27.62,27.39,0,18.6-14.07,26.37-32.54,26.37-21.91,0-33.56-11.98-32.92-33.63Z"/>
      <path class="cls-2" d="m99.44,200.38h-.17C44.53,200.38,0,155.85,0,101.11v-1.84C0,44.53,44.53,0,99.27,0h.17c54.74,0,99.27,44.53,99.27,99.27v1.84c0,54.74-44.53,99.27-99.27,99.27Zm-.17-184.04c-45.73,0-82.94,37.21-82.94,82.94v1.84c0,45.73,37.21,82.94,82.94,82.94h.17c45.73,0,82.94-37.21,82.94-82.94v-1.84c0-45.73-37.21-82.94-82.94-82.94h-.17Z"/>
    </g>
  </g>
</svg>