<?xml version="1.0" encoding="UTF-8"?>
<svg id="Layer_2" data-name="Layer 2" xmlns="http://www.w3.org/2000/svg" viewBox="0 0 210.29 210.29">
  <defs>
    <style>
      .cls-1 {
        fill: #84b8b8;
      }

      .cls-2 {
        fill: #70a187;
      }

      .cls-3 {
        fill: #516867;
      }
    </style>
  </defs>
  <g id="Layer_1-2" data-name="Layer 1">
    <g>
      <path class="cls-3" d="m105.14,210.29C47.17,210.29,0,163.12,0,105.14S47.17,0,105.14,0s105.14,47.17,105.14,105.14-47.17,105.14-105.14,105.14Zm0-198.76C53.52,11.52,11.52,53.52,11.52,105.14s42,93.62,93.62,93.62,93.62-42,93.62-93.62S156.76,11.52,105.14,11.52Z"/>
      <g>
        <path class="cls-3" d="m78.97,93.85l5.01-12.55-2.9-4.84c-1.76-2.94-4.97-4.61-8.4-4.32-3.41.28-6.32,2.42-7.59,5.6l-21.45,53.76c-1.1,2.75.25,5.89,3,6.98.64.25,1.31.38,1.99.38,2.21,0,4.17-1.33,4.99-3.38l20.1-50.39,5.25,8.75Z"/>
        <path class="cls-1" d="m137.94,71.8c-2.75-1.11-5.89.22-7,2.96l-20.51,50.63-12.98-21.64-5.01,12.55,10.63,17.71c1.63,2.72,4.5,4.34,7.68,4.34.23,0,.46,0,.69-.03,3.41-.26,6.32-2.4,7.6-5.56l21.87-53.98c1.11-2.74-.22-5.88-2.96-7Z"/>
        <path class="cls-2" d="m166.61,74.68c-.56-1.32-1.6-2.35-2.93-2.89-2.75-1.11-5.89.22-7,2.96l-20.51,50.63-5.2-8.66-5.05,12.47,2.89,4.82c1.63,2.72,4.51,4.34,7.69,4.34.23,0,.46,0,.69-.03,3.4-.26,6.32-2.4,7.6-5.56l21.86-53.98c.54-1.33.53-2.79-.03-4.11Z"/>
        <path class="cls-3" d="m117.56,94.37l-10.75-17.91c-1.76-2.94-4.98-4.61-8.39-4.31-3.41.28-6.32,2.42-7.59,5.6l-21.45,53.76c-1.1,2.75.25,5.89,3,6.98.64.25,1.31.38,1.99.38,2.21,0,4.17-1.33,4.99-3.38l20.1-50.39,13.04,21.73,5.05-12.47Z"/>
      </g>
    </g>
  </g>
</svg>