<?xml version="1.0" encoding="UTF-8"?>
<svg id="Layer_2" data-name="Layer 2" xmlns="http://www.w3.org/2000/svg" viewBox="0 0 208.97 208.93">
  <defs>
    <style>
      .cls-1 {
        fill: #cd7a3b;
      }

      .cls-2 {
        fill: #debb58;
      }

      .cls-3 {
        fill: #4a4c4a;
      }
    </style>
  </defs>
  <g id="Layer_1-2" data-name="Layer 1">
    <g>
      <path class="cls-3" d="m104.55,208.93C46.79,209.17-1.04,161.33.02,102.48,1.02,46.43,47.52-1.15,106.77.02c56.54,1.12,103.39,48.19,102.18,106.77-1.15,55.97-47.24,102.22-104.4,102.14Zm.22-11.39c50.46-.08,91.74-40.69,92.79-91.02,1.09-52.41-40.98-95.16-93.04-95.12-51.76.03-92.12,41.54-93.09,91.12-1.04,53.16,42.12,95.32,93.34,95.02Z"/>
      <path class="cls-2" d="m74.2,84.74c.01-2.36-.07-4.72.05-7.08.31-6.06,1.65-11.79,5.69-16.57,2.79-3.29,6.4-5.07,10.65-5.65,1.79-.25,3.59-.22,5.38-.22,12.08,0,24.16,0,36.24,0,2.42,0,4.24.96,5.32,3.18.31.63.38,1.3.38,1.98,0,9.88.05,19.76-.02,29.64-.05,8.64-7.22,16.76-15.74,18.03-3.15.47-6.31.18-9.46.27-.55.02-1.13-.09-1.64.24-.31-.34-.72-.27-1.11-.27-3.13,0-6.26,0-9.39,0-3.12,0-6.26.3-9.34-.14-4.84-.69-8.48-3.47-11.51-7.17-1.43-1.74-2.45-3.72-3.51-5.69-1.35-3.39-2.11-6.89-1.98-10.56Zm53.31-18.87c-.39-.03-.62-.07-.85-.07-10.98.08-21.96-.26-32.94.01-2.48.06-4.75.57-6.31,2.75-.87,1.22-1.52,2.54-1.87,3.98-1.11,4.51-.97,9.1-.79,13.69.11,2.89,1.08,5.49,2.83,7.75,1.5,1.94,3.15,3.78,5.92,3.81,2.68.03,5.35.1,8.03.09,5.75-.01,11.51-.06,17.26-.1.72,0,1.43-.04,2.14-.23,4.01-1.09,6.58-4.47,6.6-8.79.02-6.07,0-12.15,0-18.22,0-1.51,0-3.03,0-4.67Z"/>
      <path class="cls-1" d="m100.55,108.3c3.13,0,6.26,0,9.39,0,.39,0,.8-.07,1.11.27.04,3.71-.14,7.44.64,11.1.28,1.33.74,2.6,1.4,3.81,1.27,2.33,3.18,3.58,5.86,3.75,6.15.38,12.31.19,18.46.2,4.88.01,9.76-.02,14.64-.05.55,0,1.12.11,1.63-.19.21-.43.12-.88.12-1.31,0-7.2,0-14.4,0-21.6,0-3.87-1.73-6.62-5.23-8.27-3.68-1.74-4.4-6.23-1.44-8.92,1.3-1.17,2.87-1.38,4.49-1.02,4.15.92,7.03,3.63,9.35,7,2.27,3.31,3.4,7,3.38,11.04-.03,9.4-.02,18.8,0,28.2,0,2.41-1.01,4.13-3.19,5.16-.63.3-1.3.36-1.99.36-13.44,0-26.88.09-40.31-.04-7.65-.08-12.78-4.18-15.82-11.02-2.17-4.89-2.63-10.08-2.47-15.36.03-1.04-.01-2.07-.02-3.11Z"/>
      <path class="cls-3" d="m74.2,84.74c-.13,3.67.64,7.17,1.98,10.56-3.24,0-6.48,0-9.72.02-4.7,0-8.55,3.83-8.55,8.52,0,7.44,0,14.88,0,22.31,0,.35,0,.71,0,1.21h3.9c9.32,0,18.63,0,27.95,0,2.85,0,4.8,1.49,5.42,4.11.76,3.19-1.65,6.32-4.92,6.35-3.64.03-7.28,0-10.92,0-8.92,0-17.83,0-26.75,0-2.95,0-5.24-2.16-5.24-5.07-.02-9.96-.11-19.92.05-29.87.14-8.87,7.57-16.82,16.38-17.92,3.47-.43,6.95-.1,10.42-.22Z"/>
    </g>
  </g>
</svg>