<?xml version="1.0" encoding="UTF-8"?>
<svg id="Layer_2" data-name="Layer 2" xmlns="http://www.w3.org/2000/svg" viewBox="0 0 94.7 102.2">
  <defs>
    <style>
      .cls-1 {
        fill: #ca542e;
      }
    </style>
  </defs>
  <g id="Layer_1-2" data-name="Layer 1">
    <g>
      <path class="cls-1" d="m47.35,0c-10.9,0-20.29,3.06-27.76,8.17-1.19.8-2.33,1.67-3.42,2.6-.19.16-.37.32-.56.48-.16.15-.33.29-.49.44C5.45,20.32,0,32.83,0,46.13c0,12.02,4.21,23.22,11.9,31.58l-2.62,24.49,23.4-11.89c4.5,1.26,9.39,1.96,14.67,1.96,29.06,0,47.35-21.75,47.35-46.13S76.81,0,47.35,0Zm-17.68,59.34c-4.05,0-7.96-1.21-9.91-3.17-.94-.94-1.55-2.09-1.55-3.44,0-1.48,1.01-2.76,2.5-2.76,1.69,0,2.63,1.15,2.63,2.5,0,.67-.2,1.28-.61,1.96.81.88,3.37,1.95,6.88,1.95,4.38,0,7.75-1.95,7.75-5.06s-3.3-4.18-7.21-5.12c-6.41-1.55-11.13-3.03-11.13-8.43,0-4.25,4.18-7.82,10.38-7.82,3.98,0,7.01,1.15,8.63,2.77.94.94,1.42,1.96,1.42,3.1,0,1.62-1.01,2.7-2.43,2.7s-2.7-1.08-2.7-2.63c0-.47.07-1.15.47-1.75-1.08-.74-3.03-1.21-5.46-1.21-4.32,0-6.88,2.36-6.88,4.72,0,2.83,2.97,3.71,7.82,4.92,5.19,1.28,10.45,2.83,10.45,8.56,0,5.12-5.12,8.23-11.06,8.23Zm31.83,0c-3.44,0-6.81-1.35-9.24-3.51v13.08h5.87v3.1h-14.02v-3.1h4.72v-35.33h-4.72v-3.1h8.02v4.38c2.5-2.97,5.6-4.92,10.05-4.92,7.48,0,13.62,5.73,13.62,14.5,0,7.96-5.39,14.9-14.29,14.9Z"/>
      <path class="cls-1" d="m61.96,33.04c-4.11,0-7.21,2.02-9.71,4.79v14.9c2.29,2.02,5.19,3.51,9.37,3.51,6.34,0,10.45-5.19,10.52-11.73.07-6.74-4.25-11.46-10.18-11.46Z"/>
    </g>
  </g>
</svg>