<?xml version="1.0" encoding="UTF-8"?>
<svg id="Layer_2" data-name="Layer 2" xmlns="http://www.w3.org/2000/svg" viewBox="0 0 482.7 482.7">
  <defs>
    <style>
      .cls-1 {
        fill: #464646;
      }
    </style>
  </defs>
  <g id="Layer_1-2" data-name="Layer 1">
    <g>
      <path class="cls-1" d="m411.63,307.46c-2.65,1.27-3.82,3.44-5.1,5.43-2.11,3.3-4.41,6.48-6.22,9.96-.75,1.45-1.92,2.56-3.2,3.52-1.47,1.1-2.14.87-2.45-.92-.45-2.6-.76-5.22-1.13-7.83-.12-.87-.29-1.74-.35-2.61-.45-6.05-3.79-10.57-7.82-14.71-1.01-1.04-2.23-1.82-3.52-2.48-3.54-1.84-6.83-.74-8.58,2.83-2.19,4.48-3.38,9.3-4.93,14-2.66,8.05-4.56,16.3-6.1,24.63-.57,3.06-1.66,6-2.1,9.1-.58,4.04-1.08,8.09-1.25,12.16-.13,3.16.5,6.19,1.71,9.1,1.01,2.44,3.35,3.57,5.31,5.01.99.74,4.06-.32,5.02-1.37,2.17-2.36,3.47-4.93,3.42-8.35-.11-7.48,1.68-14.74,3.09-22.04.38-1.96.8-3.91,1.16-5.88.15-.84.46-1.5,1.24-1.85,1.19.5,1.32,1.6,1.61,2.57.66,2.22,1.34,4.44,1.93,6.67.3,1.13.85,2.04,1.72,2.81,1.08.95,2.11,1.96,3.19,2.91.71.63,1.32,1.48,2.27,1.74,3.27.91,6.22,1.41,9.41-1.11,5.46-4.32,9.38-9.55,11.79-15.98.82-2.2,1.71-4.28,3.57-5.85.99-.84,1.59-2.07,1.75-3.35.39-3.03,2.27-4.77,4.89-6.03.98.56.93,1.56.97,2.49.11,2.4.2,4.8.28,7.19.11,3.52.22,7.03.58,10.54.19,1.88.14,3.78-.25,5.71-.31,1.57.01,3.33.37,4.94.38,1.66.38,3.33.59,4.99.14,1.07.05,2.07-.7,2.93-.44.51-.76,1.15-.53,1.77.78,2.13,0,4.27.12,6.39.05.88,0,1.74.3,2.59.49,1.41.38,2.79-.13,4.22-.73,2.01-.11,4.12-.18,6.18-.03.8.1,1.6.08,2.39-.03.91-.24,1.82-1.17,2.2-1.3.54-1.3,1.58-.97,2.59.48,1.46.74,2.77-.67,3.88-.17.13-.29.42-.29.64-.01,3.8-2.35,7.39-1.07,11.3.41,1.25-.19,2.09-1.01,2.96-7.37,7.91-15.21,15.34-23.57,22.2-29.95,24.58-63.84,41.1-101.67,49.47-20.81,4.6-41.9,6.31-63.17,5.29-101.36-4.87-184.82-71.41-216.28-161.06-5.87-16.73-9.82-33.9-11.9-51.51-2.17-18.35-2.3-36.71-.25-55.07C12.16,119.43,77.56,39.97,169.11,11.04c14.91-4.71,30.14-7.84,45.68-9.56,15.08-1.67,30.18-1.94,45.28-.74,42.33,3.37,81.3,16.68,116.35,40.67,49.9,34.16,82.72,80.61,98.48,139.01,3.72,13.77,5.91,27.81,7.03,42.04,1.06,13.43,1.03,26.86-.19,40.27-3.84,42.3-17.82,80.95-41.92,115.93-.3.44-.51.99-1.1,1.21-.64-.27-.79-.97-1.21-1.43-.42-.46-.5-1.07-.12-1.55,1.8-2.27,1.36-4.79.87-7.32-.05-.24-.05-.49-.14-.7-1.44-3.44-.66-6.89-.1-10.35.17-1.03.32-2.06.47-3.08.14-.93-.02-1.76-.86-2.33-1.11-.75-1.15-1.73-.42-2.68,1.47-1.92,1.68-4.07,1.45-6.37-.15-1.51-.23-3.03-.35-4.54-.17-2.07-.36-4.14.47-6.14.38-.92.27-1.81-.12-2.77-.84-2.07-.39-6.16.8-8.43.2-.38.18-.76.17-1.15-.13-3.59.07-7.21-.92-10.72-.07-.23-.14-.48-.12-.71.27-3.81-1.6-6.71-3.87-9.51-2.23-2.74-4.46-5.45-7.3-7.58-2.16-1.62-6.1-1.87-8.38-.56-.44.25-.76.59-.97,1.02-1.78,3.75-4.37,7.07-5.9,10.97-.44,1.11-1.13,2.14-.54,3.52Zm-201.7,72.81c3.74-3.65,6.9-7.74,9.52-12.23,3.78-6.48,7.44-13.02,9.87-20.15,1.02-3.01,2.75-5.78,3.13-9.01.23-1.91.78-3.74,1.27-5.59.91-3.43,1.54-7.02.43-10.39-1.05-3.19-3.57-5.57-6.45-7.34-1.05-.65-2.39-.85-3.62-1.19-2.52-.7-5.03-.27-7.18.95-1.77,1.01-3.46,2.25-5.27,3.22-1.89,1.02-2.71,3-4.23,4.38-1.91,1.73-3.65,3.68-5.66,5.36-1.21,1.01-2.29,2.27-2.8,3.84-.57,1.75-1.57,3.31-2.25,4.98-.65,1.59-2.45,2.73-2.01,4.77.02.1-.16.26-.28.37-1.59,1.44-2.13,3.3-2.11,5.37,0,.74-.05,1.54-.81,1.85-1.04.43-1.39,1.37-1.63,2.24-.73,2.56-2.24,4.74-3.24,7.16-2.44,5.89-4.94,11.76-7.14,17.74-1.26,3.43-2.29,6.96-2.59,10.68-.2,2.47-.15,4.96-.45,7.4-.34,2.79-.38,5.57-.31,8.36.04,1.54.59,2.92,1.23,4.33.76,1.68,2.1,3.03,2.58,4.84.85,3.2,3.54,4.3,6.19,5.39.55.23,1.29.21,1.89.07,1.53-.35,3.1-1.03,3.31-2.71.24-2.03.72-4.08.17-6.18-.86-3.26-1.31-6.59-.94-9.97.29-2.62.57-5.25.94-7.86.11-.82.12-1.77,1.16-2.34,1.6,1.16,3.27,2.26,5.15,2.95,2.05.76,3.9,1.88,5.61,3.19,3.73,2.88,7.54,5.66,11.05,8.82,2.62,2.35,5.41,4.53,7.86,7.04,2.83,2.9,6.05,5.47,8.12,9.05.34.6.83.83,1.48,1.05,1.26.44,2.71.1,3.83,1.12,1.12-1.22,3.44-.95,3.29-3.25.65-.02.96.73,1.7.42.25-1.1.49-2.27.77-3.42.56-2.38.18-4.49-1.2-6.6-2.84-4.33-6.58-7.84-10.29-11.32-5.83-5.47-12.16-10.39-18.41-15.38-.61-.49-1.36-.88-1.69-2.04Zm227.11-187.52c-1.82.02-1.86.05-2.68-.99-.32-.41-.65-.66-1.15-.75-1.77-.34-3.41-.38-5.04.75-3.55,2.46-7.17,4.83-10.48,7.6-8.22,6.86-15.73,14.33-20.53,24.11-.17.36-.39.7-.64,1.01-1.48,1.84-2.38,3.96-3.03,6.21-.76,2.61-1.58,5.2-2.22,7.84-1.41,5.86-2.51,11.74-.25,17.66.06.15.04.32.09.47,1.11,3.75,2.17,7.52,4.34,10.85.35.54.6,1.27,1.23,1.42,2.27.54,3.53,2.38,5.12,3.79.8.7,1.65,1.44,2.7,1.43,2.32-.02,4.39.74,6.43,1.69.68.31,1.4.34,2.11.35,4.56.06,9.12.18,13.67.14,2.46-.02,4.95-.31,7.3-1.03,6.54-2.01,12.49-5.27,18.04-9.24.32-.23.66-.47.9-.78,2.06-2.68,3.5-5.68,4.42-8.92.99-3.47-.42-11.14-2.56-14.02-.14-.19-.27-.42-.45-.56-1.67-1.28-2.82-3.05-4.33-4.47-2.5-2.34-5.31-4.01-8.81-4.49-4-.55-7.97-.37-11.94.15-2.6.34-4.79,1.45-6.38,3.56q1.79,2.34,1.1,3.75c-1.62,3.33.08,6.05,3.85,5.98,2.97-.06,5.89.43,8.84.56,1.13.05,2.2.41,3.23.84,3.11,1.29,3.89,4.02,1.98,6.78-3.88,5.61-9.33,8.35-16.03,8.71-4.68.25-9.24-.57-13.73-1.81-5.21-1.43-7.72-4.78-7.66-10.16.03-2.72.27-5.45.8-8.11,1.68-8.41,5.46-15.82,11.19-22.2,4.13-4.6,8.77-8.63,13.7-12.36,1.74-1.32,3.55-2.47,5.74-2.84,1.29-.22,2-.97,2.15-2.21.1-.84.53-1.49.99-2.15.41-.59.83-1.18,1.22-1.78,1.28-1.99,1.19-2.41-.73-3.63-.2-.13-.4-.28-.62-.36-1.23-.47-1.98-1.29-1.89-2.79Zm-102.32,108.84q-.84,1.55-2.46,1.49c-.24,0-.48-.04-.72-.05-2.39-.07-2.6.29-2.89,2.69-.46,3.86-.7,7.82-4.12,10.6-.9.73-1.46,1.89-2.09,2.9-1.75,2.77-3.58,5.5-5.16,8.36-4.6,8.39-9.67,16.58-11.61,26.14-.05.23-.1.48-.21.68-1.31,2.28-1.39,4.88-2.01,7.34-1.75,7.01-1.21,13.94.48,20.86.27,1.09.44,2.4,1.64,2.76,2.52.74,4.5,2.4,6.7,3.67,1.75,1,3.37.97,5.25.29,3.67-1.32,6.8-3.52,9.9-5.76,4.2-3.03,8.67-5.78,11.58-10.28.29-.45.77-.87,1.26-1.06,1.04-.41,1.43-1.23,1.66-2.18.91-3.75,2.95-6.98,4.72-10.33.49-.92.95-1.84,1.31-2.82.84-2.33,1.45-4.73,2-7.15,1.2-5.37,2.24-10.75,2.16-16.29-.02-1.68.26-3.4-.04-5.02-1.17-6.26-1.94-12.68-5.99-18-.38-.5-.66-1.1-.91-1.69-1.94-4.65-5.67-6.68-10.46-7.18Zm-55.78,78.51c.73-.94,1.85-1.48,1.64-2.99-.27-1.92,1.33-4.09,3.26-4.5,1.29-.27,2.15-.93,2.74-2.07.55-1.07,1.14-2.12,1.34-3.32.44-2.61,1.34-5.09,2.26-7.55,2.55-6.88,3.65-14.06,4.06-21.33.33-5.84-.29-11.63-1.3-17.39-1.25-7.08-5.27-12.54-9.92-17.66-1.54-1.7-4.02-1.64-5.81-.13-1.6,1.34-3.06,2.8-4.27,4.52-.36.51-.63,1.29-1.36,1.22-1.68-.15-2.8,1.04-4.2,1.55-1.35.5-2.19,1.51-2.63,2.91-.4,1.29-.77,2.62-1.83,3.59-.32.29-.37.69-.4,1.09-.15,1.81-1.07,3.31-1.85,4.88-2.9,5.86-6.39,11.42-9.06,17.41-1.45,3.26-2.72,6.63-4.85,9.56-.53.73-.69,1.62-.65,2.51.09,1.87-.23,3.66-.92,5.39-.33.82-.38,1.69-.43,2.58-.13,2.5-.92,4.87-2.06,7.05-.45.87-.85,1.65-.94,2.62-.46,5.17-1.08,10.34-1.36,15.52-.18,3.27.1,6.57,2.14,9.41.38.52.62,1.12.65,1.78.03.58.28,1.06.63,1.52,2.14,2.83,4.73,5.12,7.91,6.72.49.25.93.64,1.82.33.3-1.55,1.71-1.68,3.14-2.08,2.22-.62,4.41-1.63,5.96-3.36.98-1.09,2.04-1.98,3.21-2.8,1.51-1.06,3.1-2.14,3.87-3.85,1.01-2.25,2.68-3.95,4.16-5.81.89-1.13,1.8-2.24,2.66-3.39.37-.5.85-1.09.42-1.74-.86-1.32-.16-2.44.33-3.6.08-.18.2-.25.33-.21.89.18.39,1.2,1.3,1.64Zm112.53-251.69c-.75-.61-1.51-.41-2.3-.26-2.21.41-4.36,1-6.45,1.82-7.44,2.93-15.23,4.81-22.77,7.43-1.86.65-2.45,0-2.15-2,.31-2.14,1.18-4.14,1.36-6.31.22-2.54,1.52-4.42,3.64-5.9,3.13-2.19,6.39-4.26,8.75-7.4.46-.62,1.19-1.06,1.85-1.51,2.52-1.7,5.05-3.38,7.6-5.02,1.21-.79,2.29-1.71,3.37-2.67,2.65-2.37,5.55-4.12,9.31-4.33,2.25-.13,4.61-.75,5.32-3.55.13-.53.53-.98.74-1.49.55-1.36.17-2.33-1.17-2.92-.51-.22-1.07-.34-1.61-.48-.57-.15-1.11-.36-1.2-1.01-.16-1.19-1.11-1.3-1.95-1.37-2.66-.24-5.3-.27-7.4,1.85-.28.28-.62.55-.98.68-3.24,1.21-6.01,3.33-9.14,4.73-5.69,2.54-10.88,6.05-16.61,8.53-1.52.66-2.91,1.67-4.31,2.59-3.87,2.56-7.55,5.39-11.22,8.22-1.14.88-2.24,1.82-3.08,3-.87,1.22-1.39,2.55-.95,4.05.69,2.31,1.7,4.52,3.41,6.22,1.08,1.08,1.21,2.12.96,3.45-.74,3.99-1.08,8.08-3.26,11.68-.28.46-.33,1.07-.43,1.61-.1.55-.14,1.14.21,1.63,1.09,1.54,1.06,3.32,1.07,5.07.02,2.25.31,4.46.59,6.69.94,7.59,4.56,13.71,10.29,18.64.9.78,1.95,1.38,2.96,2.02.71.45,1.54.64,2.29.24,1.78-.94,3.67-1,5.6-.92.72.03,1.42-.19,2.1-.45,1.93-.76,3.87-1.51,5.8-2.26,1.8-.7,3.39-1.72,4.93-2.91,3.16-2.44,5.8-5.44,8.86-7.98.6-.5,1.27-.99,1.22-1.98-.37-.69-1.62-.36-1.76-1.54.15-.83,1.38-1.78.01-2.94-1.54.96-3.53.8-5.09,1.69-4.19,2.38-8.95,2.83-13.43,4.25-2.01.64-4.11.55-6.19.43-1.9-.11-2.73-.76-3.26-2.6-.73-2.53-1.35-5.1-1.6-7.73-.22-2.29-.11-2.45,2.1-3.35,4.07-1.65,8.21-3.14,12.19-5,6.44-3.01,12.87-6.05,18.24-10.89,1.9-1.7,4.03-3.14,6.29-4.37.85-.46,1.62-.99,1.54-2.24-2.13-.83-4.44.07-6.65-.72.6-1.07,2.03-1.01,2.34-2.41Zm-46.78,123.25c1.04.37,1.39,1.42,1.83,2.29,1.07,2.14,1.98,4.36,2.99,6.53,2.36,5.07,4.69,10.15,7.82,14.82,1.16,1.74,2.62,2.48,4.68,2.01.62-.14,1.26-.25,1.89-.28,3.04-.17,5.1-1.62,5.99-4.48.29-.94.66-1.77,1.3-2.51.63-.73,1.05-1.6,1.34-2.53,1.81-5.88,3.39-11.81,3.72-18,.06-1.12.24-2.23.27-3.35.14-4.63,1.38-9.17,1.09-13.84-.39-6.29.08-12.62-.96-18.88-.08-.47-.11-.96-.07-1.43.15-2.22-.29-4.45.09-6.68.22-1.28-.12-2.54-.66-3.73-.3-.67-.65-1.37-1.42-1.52-1.55-.3-2.17-1.28-2.61-2.73-.53-1.74-2.57-1.98-3.79-.56-.3.35-.38.89-.86,1.09-2.16.13-2.47.33-2.72,2.45-.5,4.37-.68,8.76-.58,13.16.1,4.47.34,8.93.41,13.4.12,7.14-.73,14.21-1.27,21.29-.15,1.93-.38,3.96-1.8,5.55-1.93-.49-3.06-1.45-3-3.52.02-.69-.18-1.44-.46-2.09-2.1-4.94-4.52-9.7-7.79-13.99-1.91-2.5-4.48-4.05-7.28-5.3-.88-.39-1.71-.29-2.54.12-.64.32-1.27.66-1.92.96-2.11.97-3.41,2.6-3.86,4.87-.45,2.28-1.15,4.48-1.85,6.69-1.59,5.02-3.22,10.04-4.64,15.11-.67,2.4-1.33,4.78-2.59,6.93-2.15,3.67-2.96,7.31-1.68,11.63,1.3,4.36.95,4.43,5.16,6.24,1.18.51,2.07.48,3.04-.41,3.55-3.23,6.51-6.81,7.33-11.75.44-2.69,1.3-5.27,2.19-7.83.91-2.64,1.8-5.29,2.36-8.04.12-.58.05-1.32.87-1.7Zm-80.13,11.66c-.89-1.32-.85-1.33-1.09-2.82-1.29-8.07-1.72-16.2-2.12-24.34-.15-2.94.09-5.86-.13-8.81-.36-4.98-3.2-7.62-7.6-9.04-3-.97-5.21.48-5.64,3.64-.12.87-.11,1.75-.1,2.63.05,2.88.08,5.76.2,8.63.31,7.18.05,14.39,1.49,21.49.17.86.33,1.73.37,2.61.28,6.51,1.84,12.79,3.57,19.03.53,1.93,1.07,3.84,1.25,5.84.23,2.42,1.12,4.65,2.11,6.83.91,1.99,2.75,3.02,4.7,3.36,1.78.31,3.9.47,4.92-1.82.09-.19.36-.31.56-.44,1.8-1.18,3.02-2.87,3.88-4.78,1.28-2.83,2.66-5.63,3.85-8.49,2-4.78,3.64-9.7,5.71-14.46,2.58-5.94,3.81-12.36,6.17-18.38,1.11-2.84,1.44-5.88,2.46-8.74.23-.65.21-1.42.19-2.14-.08-2.98,1.38-5.7,1.43-8.66,0-.08.03-.16.07-.23.83-1.34,1.03-2.86,1.17-4.36.2-2.22.68-4.44.3-6.68-.17-1.01-.3-2.15-1.59-2.4-1.43-.27-1.85-1.18-2.09-2.51-.34-1.83-1.56-2.43-3.4-1.95-.69.18-1.36.53-2.06.63-2.09.28-3.02,1.6-3.34,3.52-.35,2.13-.67,4.26-1.03,6.39-1.49,8.82-3.12,17.62-5.84,26.15-1.94,6.08-4.15,12.08-6.62,17.97-.38.9-.54,2.05-1.77,2.34Zm34.16-154.03c-1.55,1.23-2.48,2.78-3.07,4.54-1.16,3.48-2.44,6.94-3.34,10.5-3.78,14.93-8.15,29.73-10.41,45.02-.83,5.6-1.84,11.19-3.46,16.64-.25.83-.62,1.85.05,2.53,1.11,1.12,1.23,2.54,1.61,3.91.45,1.66,1.43,2.39,2.9,2.3,3.66-.23,6.62-2.64,7.56-6.25,1.29-4.95,2.17-9.98,3.15-15,1.35-6.9,1.55-13.97,3.24-20.82.68-2.78,1.38-3.66,4.12-3.64,4.57.04,9.1-.08,13.58-1.08,1.85-.41,2.36.13,2.64,2.06.19,1.32-.34,2.51-.56,3.76-1.01,5.82-1.96,11.66-3.02,17.47-.56,3.08-.2,6.06.67,8.99.58,1.93,1.54,3.66,3.33,4.63.97-.37,1.77-.77,2.61-.97,2.36-.54,3.74-2.25,4.49-4.28.88-2.37,1.52-4.89,1.84-7.4.84-6.49,1.67-12.98,1.68-19.57,0-9.09.57-18.18,1.64-27.22.04-.38-.17-.78-.19-1.17-.16-3.03-.55-6.14.36-9.04.84-2.66.57-4.93-.89-7.25-1.81.34-3.32,1.16-4.71,2.29.08,1.01.16,1.96-.85,2.59-.3.18-.56.64-.6.99-.32,3.02-1.49,5.88-1.59,8.95-.08,2.63-.71,5.21-1.28,7.78-.35,1.55-1.28,2.54-2.94,2.72-1.37.14-2.62.67-3.9,1.14-2.77,1.03-5.56,1.99-8.34,3-2.1.76-4.06.51-6.03-.73-.25-2.48.02-5.07.77-7.29.94-2.81,1.01-5.64,1.47-8.45.35-2.11.47-4.27.69-6.36-1.63-.58-2.45-1.58-2.26-3.13.11-.91.08-1.55-.97-2.17Zm-109.8,179.04c-.4-2.09-.21-3.83-.08-5.56.66-8.93,1.49-17.86,3.12-26.67,1.98-10.69,4.17-21.34,9.9-30.85.99-1.64.86-2.04-.77-3.12-1.15-.76-2.16-1.54-2.73-2.9-.78-1.89-2.18-2.59-4.24-2.27-2.8.44-4.8,1.9-5.98,4.58-4.09,9.25-6.9,18.9-9.18,28.72-1.63,7.02-2.31,14.19-3.33,21.31-1.08,7.57-1.22,15.13-.5,22.73.29,3.13.94,6.15,2.33,9,1.42,2.91,3.76,4.34,6.95,4.14,3.66-.23,6.34-2.49,8.75-4.93,1.29-1.31,2.61-2.52,4.03-3.68,4.33-3.53,8.34-7.3,7.51-13.74-.12-.92-.36-1.51-1.05-1.94-1.06-.67-2.17-.86-3.42-.37-2.03.79-3.87,1.9-5.65,3.12-1.64,1.13-3.34,2.12-5.65,2.45Zm69.51-157.69c.59,1.08.26,1.86.13,2.62-1.31,7.71-2.51,15.45-3.44,23.21-.87,7.22-1.63,14.45-2.55,21.66-.7,5.54-1.58,11.07-2.36,16.6-.33,2.3.41,4.54,2.08,5.82,1.22.93,2.46,1.72,3.25,3.34,1.24-1.96,3.07-2.91,4.24-4.66,1.5-2.24,2.39-4.58,2.13-7.16-.21-2-.69-3.91.4-5.79.2-.35.05-.78-.13-1.15-.18-.37-.25-.75-.1-1.15.87-2.34,1.04-4.83,1.48-7.26.35-1.94.97-3.86.39-5.88-.12-.42.01-.97.16-1.41.6-1.76.77-3.58.94-5.41.26-2.69.43-5.39,1.6-7.93.45-.98.48-2.18.62-3.28.72-5.87,1.48-11.72,2.91-17.47.69-2.79,1.42-5.59,1.81-8.42.4-2.93,1.51-4.98,4.57-5.67.67-.15,1.32-.59,1.86-1.04.86-.72,1.55-1.59,1.27-2.95-1.65-.42-3.38-.7-3.77-2.66-.37-.05-.61-.16-.83-.11-4.53.83-9.16,1.02-13.55,2.74-3.78,1.49-7.73,2.53-11.61,3.78-.61.19-1.29.29-1.79.66-3.35,2.47-7.23,4.05-10.57,6.56-4.99,3.75-4.52,4.09-2.86,9.65.18.59.56,1.15.94,1.66.54.72,1.28,1.25,2.19,1.35,2.49.26,5.07.05,7.2-1.08,2.73-1.44,5.27-3.4,7.37-5.69,1.68-1.82,3.8-2.46,5.99-3.45Zm-37.32,172.09c1.41-1.6,2.81-3.41,4-5.38.34-.56.46-1.2.43-1.85-.09-1.86.36-3.64.78-5.43,2.94-12.77,5.26-25.65,7.01-38.64,1.14-8.46,2.37-16.93,4.82-25.15.44-1.46.59-2.98.73-4.49.18-1.96-.26-3.66-2.14-4.7-.72-.4-1.15-1.1-1.72-1.66-2.72-2.68-6.45-1.77-7.82,1.82-4.92,12.84-7.35,26.27-9.33,39.8-1.07,7.27-1.85,14.58-3.26,21.8-1.18,6.02-2.6,12.02-1.62,18.27.23,1.48.51,2.76,1.41,3.94,1.48,1.93,2.36,2.01,4.19.34.1-.1.29-.1.4-.13.82.27.93,1.37,2.14,1.47Zm75.96-22.82c.12,1.1.42,2.53.38,3.96-.07,2.18,1.82,3.07,2.76,4.57.1.15.47.26.65.21,1.37-.4,2.86-.02,4.14-.35,3.58-.93,5.62-2.59,5.96-7.31.1-1.43.19-2.87.26-4.31.28-5.28,1.4-10.45,2.15-15.66,1.32-9.17,2.52-18.36,4.21-27.47,1.08-5.81,2.16-11.62,3.3-17.42.34-1.73.07-3.14-1.41-4.25-.57-.43-1.03-1-1.54-1.51-1.12-1.1-2.47-1.74-3.99-2.05-2.72-.55-5.51,1.19-6,3.87-2.05,11.07-4.06,22.15-6.1,33.22-1.58,8.57-2.39,17.25-3.63,25.86-.4,2.75-1.11,5.48-1.12,8.63Z"/>
      <path class="cls-1" d="m212.2,357.97c-2.31.37-3.22,2.67-4.43,4.49-2.25,3.36-5.23,5.98-8.13,8.69-.64.6-1.36,1.12-2.33.9-.5-.82-.18-1.58.1-2.31,1.7-4.47,3.61-8.86,5.4-13.29,1.85-4.55,3.49-9.26,6.09-13.49,1.75-2.84,3.52-5.68,5.42-8.43.66-.96,1.64-1.8,2.65-2.38.95-.54,1.83-1.17,2.63-1.88.93.24.91,1.39,1.82,1.53-.11,2.12-.54,4.13-1.24,6.09-.16.45-.38.9-.43,1.37-.21,2.21-1.2,4.07-2.46,5.82-.43.6-.79,1.2-.89,1.93-.34,2.35-1.52,4.34-2.88,6.19-.58.79-.75,1.75-1.43,2.45-.81.83.88,1.31.11,2.31Z"/>
      <path class="cls-1" d="m317.63,368.29c-.33-7.96,13.59-37.02,19.68-41.2.75.68.88,1.63.95,2.54.15,2.15.23,4.31-.05,6.46-.84,6.41-3.14,12.33-6.28,17.93-2.03,3.63-4.51,6.96-7.12,10.2-1.58,1.96-4.96,3.87-7.18,4.07Z"/>
      <path class="cls-1" d="m250.93,380.68c.63-5.48,1.13-11.62,3.83-17.3.48-1.02.74-2.11.97-3.2.36-1.73.89-3.4,1.61-5.01,3.63-8.09,7.4-16.12,11.65-23.9,2.22-4.06,4.8-7.93,7.28-11.84.98-1.55,1.86-1.53,2.94-.09,1.13,1.51,1.48,3.33,1.96,5.11,1.7,6.24.48,12.37-.65,18.5-.36,1.97-.83,3.9-.7,5.92.02.32.11.68-.01.95-.96,2.14-.79,4.53-1.49,6.72-1.24,3.87-2.54,7.71-3.86,11.55-.73,2.14-1.81,4.08-3.5,5.65-.89.81-1.61,1.78-2.21,2.82-3.35,5.81-8.71,8.67-14.96,10.21-1.59.39-1.91.14-2.46-1.41-.47-1.32-.32-2.69-.38-4.68Z"/>
      <path class="cls-1" d="m257.9,400.69c-.3.4-.56.8-1.21.63-.3-.39.14-.48.31-.64.23-.21.52-.31.9,0Z"/>
      <path class="cls-1" d="m328.9,113.01q-1.65-1.61-.85-3.23c1.93.93,2.02,1.23.85,3.23Z"/>
      <path class="cls-1" d="m298.9,119.46c.17-1.56.3-2.64,1.62-3.6.02,1.56-.64,2.41-1.62,3.6Z"/>
    </g>
  </g>
</svg>