<?xml version="1.0" encoding="UTF-8"?>
<svg id="Layer_2" data-name="Layer 2" xmlns="http://www.w3.org/2000/svg" viewBox="0 0 339.95 388.91">
  <defs>
    <style>
      .cls-1 {
        fill: #f26822;
      }

      .cls-2 {
        fill: #6f6363;
      }
    </style>
  </defs>
  <g id="Layer_1-2" data-name="Layer 1">
    <path class="cls-1" d="m321.22,19.02h-33.82c3.28,5.39,5.2,11.69,5.2,18.46s-2.05,13.49-5.53,19h15.43v259.01h-52.16c-29.38,0-56.15-26.25-56.15-58.25v-115.89h45.66v-43.02h-46.18l-.03-79.3H18.73C8.38,19.02,0,27.41,0,37.75v302.49c0,10.34,8.38,18.73,18.73,18.73h103.95v29.94l46.95-46.95-46.95-46.95v26.5H37.45V56.48h113.19v201.28c0,56.14,46.69,101.27,100.21,101.27h51.6v.19l25.28.09c3.82-.33,12.2-8.71,12.2-19.06V37.75c0-10.34-8.38-18.73-18.72-18.73Z"/>
    <path class="cls-2" d="m256.97,0c-20.7,0-37.46,16.78-37.47,37.48,0,20.69,16.77,37.47,37.47,37.47,20.7,0,37.48-16.78,37.48-37.47C294.44,16.78,277.66,0,256.97,0Zm0,63.83c-14.55-.02-26.33-11.8-26.36-26.36.03-14.56,11.81-26.34,26.37-26.36,14.55.03,26.34,11.81,26.36,26.37-.02,14.55-11.81,26.33-26.37,26.35Z"/>
  </g>
</svg>