<?xml version="1.0" encoding="UTF-8"?>
<svg id="Layer_2" data-name="Layer 2" xmlns="http://www.w3.org/2000/svg" xmlns:xlink="http://www.w3.org/1999/xlink" viewBox="0 0 72 72">
  <defs>
    <style>
      .cls-1 {
        fill: url(#linear-gradient);
      }
    </style>
    <linearGradient id="linear-gradient" x1="-.97" y1="14.65" x2="68.89" y2="54.99" gradientUnits="userSpaceOnUse">
      <stop offset="0" stop-color="#51dbe8"/>
      <stop offset=".74" stop-color="#219ed9"/>
    </linearGradient>
  </defs>
  <g id="Layer_1-2" data-name="Layer 1">
    <path id="Logo_Icon" data-name="Logo Icon" class="cls-1" d="m49.32,61.45c-3.35-3.35-3.35-8.78,0-12.13,3.36-3.35,8.79-3.35,12.14,0,3.35,3.35,3.35,8.78,0,12.13-3.35,3.35-8.78,3.35-12.13,0ZM22.68,22.68c3.35-3.35,3.35-8.78,0-12.13-3.36-3.35-8.79-3.35-12.14,0-3.36,3.35-3.36,8.78,0,12.13,3.35,3.36,8.78,3.36,12.13,0Zm38.78-12.13c-3.35-3.35-8.78-3.35-12.14,0-3.35,3.35-3.35,8.78,0,12.13,3.36,3.36,8.79,3.36,12.14,0,3.35-3.35,3.35-8.78,0-12.13ZM22.68,49.32c-3.35-3.35-8.79-3.35-12.13,0-3.36,3.35-3.36,8.78,0,12.13,3.35,3.35,8.78,3.35,12.13,0,3.35-3.35,3.35-8.78,0-12.13Zm49.32-13.32c0-4.74-3.84-8.59-8.58-8.59s-8.58,3.84-8.58,8.59,3.84,8.58,8.58,8.58,8.58-3.84,8.58-8.58Zm-54.84,0c0-4.74-3.84-8.59-8.58-8.59S0,31.26,0,36s3.84,8.58,8.58,8.58,8.58-3.84,8.58-8.58ZM36,0c-4.74,0-8.58,3.84-8.58,8.58s3.84,8.58,8.58,8.58,8.58-3.84,8.58-8.58S40.74,0,36,0Zm0,54.84c-4.74,0-8.58,3.84-8.58,8.58s3.84,8.58,8.58,8.58,8.58-3.84,8.58-8.58-3.85-8.58-8.58-8.58Z"/>
  </g>
</svg>