<?xml version="1.0" encoding="UTF-8"?>
<svg id="Layer_2" data-name="Layer 2" xmlns="http://www.w3.org/2000/svg" viewBox="0 0 208.97 208.93">
  <defs>
    <style>
      .cls-1 {
        fill: #7f9b74;
      }

      .cls-2 {
        fill: #464b50;
      }

      .cls-3 {
        fill: #99c1b8;
      }
    </style>
  </defs>
  <g id="Layer_1-2" data-name="Layer 1">
    <g>
      <path class="cls-2" d="m104.5,208.93C46.7,209.11-1.1,161.26.02,102.39,1.08,46.54,46.95-.13,104.84,0c57.85.13,105.35,47.99,104.11,106.8-1.18,55.91-47.2,102.2-104.45,102.13Zm-.1-11.38c51-.01,92.11-40.88,93.14-91,1.09-52.61-41.07-94.96-92.6-95.13-52.06-.17-92.55,41.5-93.5,91.12-1.02,53.1,41.91,95.02,92.96,95.02Z"/>
      <path class="cls-2" d="m77.2,139.23c.39,0,.82,0,1.25,0,10.71,0,21.43,0,32.14,0,2.61,0,4.6,1.56,5.27,4.04.62,2.29-.4,4.74-2.47,5.96-.85.5-1.77.69-2.75.69-12.99,0-25.99,0-38.98,0-3.11,0-5.35-2.29-5.35-5.38,0-17.47,0-34.94,0-52.41,0-2.92,2.11-5.14,5.04-5.34,2.84-.2,5.23,1.83,5.58,4.76.07.59.09,1.19.09,1.79,0,14.79,0,29.58,0,44.38,0,.47-.11.95.17,1.51Z"/>
      <path class="cls-1" d="m133.23,64.75c-5.3,0-10.42,0-15.53,0-6.08,0-12.16.08-18.23,0-3.06-.04-5.34-2.47-5.32-5.37.02-2.89,2.37-5.26,5.43-5.27,12.96-.04,25.91-.04,38.87,0,3.24.01,5.4,2.41,5.4,5.78,0,13.4,0,26.79,0,40.19,0,3.88.03,7.76,0,11.64-.04,4.1-4.08,6.73-7.62,4.95-2.02-1.02-3-2.71-3-5.05.03-15.11.02-30.23.02-45.34v-1.53Z"/>
      <path class="cls-3" d="m114.07,83.56c-.66,0-1.14,0-1.61,0-10.51,0-21.03,0-31.54,0-2.36,0-4.17-.98-5.26-3.09-1.68-3.26.73-7.33,4.41-7.48,1.28-.05,2.56-.02,3.84-.02,11.59,0,23.19.06,34.78-.04,3.63-.03,6.01,2.79,6,5.97-.07,17.15-.03,34.3-.04,51.45,0,4.22-4.15,6.88-7.73,4.91-1.88-1.04-2.85-2.71-2.85-4.91,0-15.07,0-30.14,0-45.22,0-.47,0-.94,0-1.59Z"/>
    </g>
  </g>
</svg>