<?xml version="1.0" encoding="UTF-8"?>
<svg id="Layer_2" data-name="Layer 2" xmlns="http://www.w3.org/2000/svg" viewBox="0 0 237.9 294.45">
  <defs>
    <style>
      .cls-1 {
        fill: #f47b20;
      }

      .cls-2 {
        fill: #ffcf01;
      }

      .cls-3 {
        fill: #b9d432;
      }

      .cls-4 {
        fill: #a4c6c5;
      }

      .cls-5 {
        fill: #626162;
      }

      .cls-6 {
        fill: #4e4e4e;
      }
    </style>
  </defs>
  <g id="Logo_Elements" data-name="Logo Elements">
    <g>
      <path class="cls-6" d="m22.33,294.45c-2.65,0-4.86-2.02-5.09-4.67L.02,94.06c-.15-1.73.58-3.41,1.95-4.48L115.62,1.08c1.83-1.43,4.39-1.44,6.24-.03l22.02,16.78,2.49-9.63c.36-1.38,1.27-2.54,2.52-3.22,1.25-.68,2.73-.8,4.08-.34l65.33,22.27c1.33.46,2.42,1.44,3.01,2.73.58,1.28.61,2.75.07,4.06l-13.52,32.91,28.04,21.37c1.43,1.09,2.18,2.85,1.98,4.63l-21.71,195.42c-.29,2.57-2.45,4.52-5.03,4.55l-188.75,1.88h-.05ZM10.45,95.94l16.56,188.25,179.49-1.79,20.89-188.05-28.86-22c-1.84-1.4-2.51-3.87-1.63-6.01l12.95-31.51-54.96-18.74-3.04,11.75c-.43,1.66-1.66,2.99-3.28,3.55-1.62.56-3.41.27-4.77-.76l-25.01-19.06L10.45,95.94Z"/>
      <g>
        <path class="cls-3" d="m197.7,263.77l-161.76-3.93c-.67-.02-1.21.55-1.15,1.22l1.12,12.79c.05.59.54,1.03,1.13,1.03l160.02-1.59c.58,0,1.06-.45,1.11-1.03l.62-7.26c.05-.65-.45-1.2-1.09-1.22Z"/>
        <path class="cls-2" d="m35.45,254.29l164.55-6.01c.56-.02,1.02-.44,1.08-1l2.72-25.27c.07-.63-.39-1.19-1.03-1.25l-171.49-14.11c-.7-.06-1.27.53-1.21,1.22l4.22,45.39c.05.59.56,1.04,1.16,1.03Z"/>
        <path class="cls-4" d="m184.25,72.75l12.57-30.6c.25-.6-.06-1.28-.68-1.49l-33.2-11.32c-.62-.21-1.29.15-1.45.78l-5.26,20.36c-.2.78-1.13,1.1-1.77.61l-34.71-26.46c-.41-.31-.97-.31-1.37,0L31.46,92.45c-.81.63-.42,1.94.61,2.01l183.64,12.82c.62.04,1.16-.42,1.2-1.04l.48-6.54c.03-.38-.14-.75-.44-.98l-32.35-24.66c-.41-.31-.55-.85-.36-1.32Z"/>
        <path class="cls-5" d="m20.81,104.47l4.07,43.97c.06.6.57,1.05,1.17,1.02l185.59-7.99c.55-.02,1.01-.45,1.07-1l2.19-19.67c.07-.63-.39-1.19-1.02-1.25L22.02,103.24c-.7-.06-1.28.53-1.22,1.23Z"/>
        <path class="cls-1" d="m30.56,201.73l173.76,6.07c.59.02,1.09-.42,1.16-1l6.37-57.15c.08-.71-.51-1.31-1.22-1.25l-183.37,16.71c-.62.06-1.08.61-1.02,1.23l3.24,34.37c.05.56.52,1,1.08,1.02Z"/>
      </g>
    </g>
  </g>
</svg>