<?xml version="1.0" encoding="UTF-8"?>
<svg id="Layer_2" data-name="Layer 2" xmlns="http://www.w3.org/2000/svg" viewBox="0 0 91.02 118.33">
  <defs>
    <style>
      .cls-1 {
        fill: #94a545;
      }
    </style>
  </defs>
  <g id="Bars">
    <path class="cls-1" d="m43.26,46.14c0-2.63,2.39-4.63,6.1-4.63,1.85,0,3.79.45,5.74,1.32l7.57-8.98c-4.29-2.47-9.05-3.69-14.39-3.69-11.59,0-19.08,7.65-19.08,17.92,0,7.09,3.27,11.06,9.93,13.71l8.97-10.65c-2.92-.95-4.84-2.19-4.84-5Z"/>
    <path class="cls-1" d="m53.3,70.7c0,3.24-2.7,5.72-6.87,5.72-2.82,0-5.61-1.05-8.41-3.12l-8.09,9.65c4.84,3.59,9.88,5.21,16.19,5.21,12.97,0,21.16-7.96,21.16-19.46,0-9.14-4.36-13-12.32-15.59l-9.04,10.78c4.97,1.42,7.38,2.89,7.38,6.82Z"/>
    <g>
      <polygon class="cls-1" points="0 0 0 25.05 69.99 25.05 91.02 0 0 0"/>
      <polygon class="cls-1" points="91.02 93.28 21 93.28 0 118.33 91.02 118.33 91.02 93.28"/>
    </g>
  </g>
</svg>