<?xml version="1.0" encoding="UTF-8"?>
<svg id="Layer_2" data-name="Layer 2" xmlns="http://www.w3.org/2000/svg" viewBox="0 0 208.96 208.96">
  <defs>
    <style>
      .cls-1 {
        fill: #84b8b8;
      }

      .cls-2 {
        fill: #cd7a3b;
      }

      .cls-3 {
        fill: #debb58;
      }

      .cls-4 {
        fill: #5e473c;
      }
    </style>
  </defs>
  <g id="Layer_1-2" data-name="Layer 1">
    <g>
      <path class="cls-4" d="m104.48,208.96C46.87,208.96,0,162.09,0,104.48S46.87,0,104.48,0s104.48,46.87,104.48,104.48-46.87,104.48-104.48,104.48Zm0-197.51C53.18,11.45,11.45,53.18,11.45,104.48s41.73,93.03,93.03,93.03,93.03-41.73,93.03-93.03S155.78,11.45,104.48,11.45Z"/>
      <path class="cls-2" d="m126.91,87.71c-3.16,0-5.72-2.56-5.72-5.72,0-16.7-20.22-24.87-31.88-13.21-2.23,2.24-5.86,2.24-8.1,0-2.24-2.23-2.24-5.86,0-8.1,19.04-19.05,51.43-5.29,51.43,21.3,0,3.16-2.56,5.72-5.72,5.72Z"/>
      <path class="cls-3" d="m60.75,127.69c-18.79-18.78-5.66-51.43,21.3-51.43,3.16,0,5.72,2.56,5.72,5.72s-2.56,5.72-5.72,5.72c-16.47,0-25.03,20.06-13.21,31.88,2.24,2.23,2.24,5.86,0,8.1-2.23,2.24-5.86,2.24-8.1,0Z"/>
      <path class="cls-4" d="m76.32,126.86c0-3.16,2.56-5.72,5.72-5.72s5.72,2.56,5.72,5.72c0,16.7,20.22,24.86,31.88,13.21,2.23-2.24,5.86-2.24,8.1,0,2.24,2.23,2.24,5.86,0,8.1-19.04,19.04-51.43,5.29-51.43-21.3Z"/>
      <path class="cls-1" d="m126.91,132.58c-3.16,0-5.72-2.56-5.72-5.72s2.56-5.72,5.72-5.72c16.47,0,25.02-20.07,13.21-31.88-2.24-2.23-2.24-5.86,0-8.1,2.23-2.24,5.86-2.24,8.1,0,18.79,18.79,5.65,51.43-21.3,51.43Z"/>
    </g>
  </g>
</svg>