<?xml version="1.0" encoding="UTF-8"?>
<svg id="Layer_2" data-name="Layer 2" xmlns="http://www.w3.org/2000/svg" viewBox="0 0 210.66 210.61">
  <defs>
    <style>
      .cls-1 {
        fill: #a6acb2;
      }

      .cls-2 {
        fill: #ca5352;
      }

      .cls-3 {
        fill: #373d48;
      }
    </style>
  </defs>
  <g id="Layer_1-2" data-name="Layer 1">
    <g>
      <path class="cls-3" d="m105.33,210.61C48.37,210.87.02,164.5,0,105.33-.02,46.88,47.51,0,105.33,0c58.08,0,105.28,47.04,105.32,105.33.04,58.92-48.13,105.52-105.33,105.28ZM11.5,105.36c.07,51.28,41.29,93.18,92.61,93.78,52.94.62,94.37-41.88,95.03-92.42.7-53.13-42.16-94.44-92.23-95.22C54.46,10.69,11.46,53.22,11.5,105.36Z"/>
      <path class="cls-2" d="m87.18,68.63c2.23.04,3.83,1.09,4.99,2.97,7.39,11.96,14.79,23.9,22.19,35.85,4.64,7.5,9.3,15,13.92,22.52,2.33,3.79.32,8.24-4.06,8.9-2.38.36-4.31-.65-5.6-2.69-1.92-3.03-3.79-6.1-5.68-9.16-10.17-16.43-20.34-32.86-30.49-49.3-2.22-3.6-.76-7.75,3.07-8.9.55-.16,1.1-.17,1.66-.19Z"/>
      <path class="cls-1" d="m136.32,120.81c-1.87-.14-3.48-.79-4.52-2.45-3.64-5.82-7.28-11.65-10.89-17.49-4.66-7.53-9.29-15.07-13.95-22.6-.58-.94-1.25-1.82-1.44-2.97-.51-3.18,1.34-5.38,3.7-6.33,2.27-.92,5.04-.02,6.46,2.22,3.81,6.05,7.55,12.13,11.32,18.2,3.41,5.5,6.85,10.98,10.2,16.51,1.5,2.47,3.19,4.83,4.46,7.45,1.58,3.25-1.87,7.76-5.34,7.45Z"/>
      <path class="cls-1" d="m68.6,92.46c-.01-2.43,1.71-4.8,4.02-5.53,2.33-.73,4.95.19,6.34,2.39,3.32,5.28,6.58,10.59,9.87,15.89,3.41,5.5,6.82,11.01,10.23,16.52,1.78,2.87,3.61,5.71,5.33,8.61,1.76,2.97.64,6.12-2.04,7.73-2.83,1.69-6,.59-7.7-2.17-3.36-5.44-6.73-10.88-10.09-16.32-4.2-6.79-8.4-13.58-12.59-20.38-.94-1.52-1.99-2.98-2.77-4.59-.33-.69-.63-1.38-.59-2.17Z"/>
      <path class="cls-3" d="m155.29,98.32c-.02,2.76-1.66,4.95-4.06,5.63-2.59.73-5.1-.18-6.54-2.48-3.61-5.78-7.19-11.58-10.78-17.37-1.41-2.27-2.84-4.52-4.19-6.82-1.94-3.31-.31-7.36,3.34-8.45,2.61-.78,5.14.25,6.73,2.82,3.8,6.13,7.59,12.26,11.38,18.4,1.07,1.73,2.13,3.46,3.21,5.19.63,1.01,1,2.08.91,3.09Z"/>
      <path class="cls-3" d="m55.37,109.3c0-2.8,1.53-4.87,4.1-5.65,2.5-.76,5.05.17,6.52,2.51,3.07,4.89,6.09,9.82,9.13,14.73,1.93,3.12,3.87,6.22,5.77,9.36,1.22,2.02,1.2,4.11-.06,6.09-1.21,1.9-3.03,2.79-5.28,2.63-1.85-.13-3.37-.97-4.37-2.56-5.03-8.09-10.03-16.19-15.04-24.29-.55-.9-.86-1.88-.77-2.82Z"/>
    </g>
  </g>
</svg>