<?xml version="1.0" encoding="UTF-8"?>
<svg id="Layer_2" data-name="Layer 2" xmlns="http://www.w3.org/2000/svg" viewBox="0 0 209.91 209.95">
  <defs>
    <style>
      .cls-1 {
        fill: #a8b657;
      }

      .cls-2 {
        fill: #44353c;
      }
    </style>
  </defs>
  <g id="Layer_1-2" data-name="Layer 1">
    <g>
      <path class="cls-2" d="m209.91,105.04c.04,57.18-46.51,104.92-104.96,104.92C46.64,209.95-.71,162.41,0,103.48.7,47.06,46.88-1.07,107.25.02c55.6,1,102.75,47.01,102.66,105.02Zm-104.94,93.45c51.61-.06,92.87-41.84,93.5-92.22.66-52.55-41.88-94.91-93.43-94.83-51.72.08-92.81,41.16-93.57,91.86-.81,53.28,41.64,95.11,93.5,95.18Z"/>
      <path class="cls-2" d="m110.71,155.11c.19,1.83.02,3.53-1.26,5.03-1.13,1.32-2.46,2.21-4.19,2.21-10.11-.02-19.59-2.2-27.81-8.44-5.49-4.17-9.32-9.6-11.83-15.98-3.49-8.88-4.16-18.12-3.42-27.52,1.05-13.29,4.91-25.81,10.43-37.88,4.2-9.18,9.47-17.7,15.94-25.44,3.83-4.59,8.14-8.72,12.97-12.26,2.37-1.73,5.15-1.3,7.86.87,3.34,2.67,6.58,5.44,9.48,8.59,2.42,2.63,4.72,5.35,6.79,8.27,1.62,2.3,3.27,4.57,4.76,6.97,2.41,3.9,4.59,7.91,6.57,12.04,4.82,10.06,8.23,20.57,9.93,31.6,1.57,10.18,1.73,20.36-1.12,30.39-2.68,9.41-7.83,17.05-16.17,22.38-2.09,1.34-4.25,1.6-6.44.34-1.93-1.11-2.86-2.87-2.81-5.08.05-1.95.88-3.58,2.57-4.61,7.57-4.64,11.19-11.78,12.73-20.18,1.83-9.93.65-19.72-1.78-29.39-3.37-13.41-9.04-25.79-17.05-37.07-3.3-4.65-6.97-8.99-11.34-12.7-.47-.4-.77-.49-1.3-.02-6.92,6.05-12.28,13.31-16.84,21.25-3.95,6.88-7.08,14.11-9.48,21.65-2.35,7.39-3.94,14.94-4.39,22.71-.39,6.8.13,13.46,2.4,19.92,1.97,5.61,5.22,10.31,10.33,13.45,3.96,2.44,8.34,3.87,13.01,4.27,1.91.12,3.82.21,5.73.38,1.74.15,3.27.67,4.44,2.18.52.67.76,1.46,1.29,2.09Z"/>
      <path class="cls-1" d="m110.71,155.11c-.53-.63-.77-1.42-1.29-2.09-1.17-1.5-2.7-2.03-4.44-2.18-1.91-.16-3.82-.25-5.73-.38.01-4.2.08-8.4.02-12.59-.06-4.47-4.02-8.91-8.81-8.76-2.66.08-4.67-1.82-5.22-4.52-.52-2.58.71-5.42,3-6.3,2.44-.94,4.96-.54,7.42.13.98.27,1.94.62,2.93.94.44-5.42-2.31-9.88-7.02-10.97-.89-.2-1.82-.19-2.72-.33-3.57-.54-5.24-4.4-4.17-7.48.87-2.51,3.36-3.91,6.02-3.75,2.92.18,5.64.94,8.2,2.21.58-.36.37-.89.38-1.34.09-2.75-.17-5.52.15-8.27.48-4.18,5.24-6.31,8.67-3.9,1.7,1.2,2.66,2.8,2.66,4.91,0,21.31,0,42.63,0,63.94,0,.24-.03.48-.05.72Z"/>
    </g>
  </g>
</svg>