<?xml version="1.0" encoding="UTF-8"?>
<svg id="Layer_2" data-name="Layer 2" xmlns="http://www.w3.org/2000/svg" viewBox="0 0 209.49 209.49">
  <defs>
    <style>
      .cls-1 {
        fill: #84b8b8;
      }

      .cls-2 {
        fill: #db5d48;
      }

      .cls-3 {
        fill: #4c443c;
      }
    </style>
  </defs>
  <g id="Layer_1-2" data-name="Layer 1">
    <g>
      <path class="cls-2" d="m60.94,124.82c-.97,0-1.96-.25-2.86-.77-2.74-1.59-3.68-5.1-2.1-7.84l35.16-60.93c1.58-2.74,5.09-3.69,7.84-2.1,2.74,1.59,3.68,5.1,2.1,7.84l-35.16,60.93c-1.06,1.84-2.99,2.87-4.97,2.87Z"/>
      <path class="cls-1" d="m148.55,124.82c-1.98,0-3.91-1.03-4.97-2.87l-35.16-60.93c-1.58-2.75-.64-6.26,2.1-7.84,2.74-1.59,6.25-.64,7.84,2.1l35.16,60.93c1.58,2.75.64,6.26-2.1,7.84-.9.52-1.89.77-2.86.77Z"/>
      <path class="cls-3" d="m139.9,139.78h-.03l-70.32-.33c-3.17-.02-5.73-2.6-5.71-5.77.02-3.16,2.58-5.71,5.74-5.71h.03l70.32.33c3.17.02,5.73,2.6,5.71,5.77-.02,3.16-2.58,5.71-5.74,5.71Z"/>
      <path class="cls-3" d="m104.64,209.49c-12.12,0-24.43-2.12-36.44-6.6-26.2-9.77-47.04-29.16-58.66-54.61-11.63-25.45-12.65-53.9-2.89-80.11C26.8,14.05,87.21-13.57,141.3,6.6c26.2,9.77,47.04,29.16,58.66,54.61,11.62,25.45,12.65,53.9,2.89,80.11h0c-15.68,42.11-55.73,68.18-98.21,68.18Zm.21-198.01c-37.83,0-73.48,23.21-87.45,60.7-8.69,23.34-7.78,48.68,2.57,71.33,10.35,22.66,28.9,39.92,52.23,48.62,48.16,17.95,101.95-6.64,119.89-54.83h0c8.69-23.34,7.78-48.68-2.57-71.33s-28.9-39.92-52.23-48.62c-10.69-3.98-21.66-5.87-32.45-5.87Zm92.63,127.83h.01-.01Z"/>
    </g>
  </g>
</svg>