<?xml version="1.0" encoding="UTF-8"?>
<svg id="Layer_2" data-name="Layer 2" xmlns="http://www.w3.org/2000/svg" viewBox="0 0 208.13 208.15">
  <defs>
    <style>
      .cls-1 {
        fill: #db5e49;
      }

      .cls-2 {
        fill: #85b9b9;
      }

      .cls-3 {
        fill: #4c5b62;
      }
    </style>
  </defs>
  <g id="Layer_1-2" data-name="Layer 1">
    <g>
      <path class="cls-3" d="m208.13,104.09c.1,57.82-47.75,105.24-106.33,104.04C46.61,206.99-.74,161.52,0,102.55.73,45.71,47.64-1.2,106.39.02c56.23,1.17,101.76,47.31,101.73,104.06Zm-11.37-.06c.02-50.62-40.82-91.8-90.98-92.66C53.64,10.48,11.8,52.34,11.36,103.13c-.45,52.04,41.36,92.73,90.87,93.64,52.5.97,94.68-41.65,94.53-92.74Z"/>
      <path class="cls-1" d="m88.07,72.55c.26-4.67-1.9-7.86-6.32-9.58.35-.87,1.11-1.18,1.79-1.55,3.63-1.92,7.54-3.05,11.56-3.75,11.74-2.07,22.97-.63,33.21,5.71,12.72,7.89,20.55,19.25,22.59,34.17,2.03,14.84-2.19,27.86-12.29,38.95-1.86,2.04-4.03,3.3-6.87,2.68-2.44-.54-3.74-2.3-4.37-4.61-.58-2.15-.04-3.92,1.58-5.54,5.57-5.57,8.94-12.27,9.98-20.11,1.31-9.92-1.1-18.88-7.3-26.71-5.87-7.41-13.59-11.7-22.98-12.92-6.79-.88-13.28.17-19.48,3.05-.31.14-.6.44-1.1.2Z"/>
      <path class="cls-2" d="m120.43,135.51c-.37,4.7,1.69,8.02,6.01,9.78-.02.58-.39.64-.66.78-8.02,4.16-16.58,5.78-25.53,5.06-9.4-.76-17.93-4.04-25.38-9.87-6.25-4.9-10.95-11.03-14.14-18.34-2.93-6.71-4.22-13.72-3.89-20.99.47-10.29,3.92-19.5,10.44-27.5,1.27-1.56,2.51-3.19,4.15-4.42,2.23-1.68,5.6-1.39,7.68.65,2.07,2.02,2.41,5.43.69,7.68-1.5,1.96-3.34,3.64-4.74,5.7-4.8,7.05-6.84,14.86-6.13,23.3.81,9.53,4.98,17.51,12.23,23.73,5.49,4.71,11.93,7.39,19.19,8.11,6.75.67,13.1-.61,19.18-3.5.18-.09.36-.16.55-.22.07-.02.15.02.35.06Z"/>
    </g>
  </g>
</svg>