<?xml version="1.0" encoding="UTF-8"?>
<svg id="Layer_2" data-name="Layer 2" xmlns="http://www.w3.org/2000/svg" viewBox="0 0 559.74 366.25">
  <defs>
    <style>
      .cls-1 {
        fill: #f4b919;
      }

      .cls-2 {
        fill: #00adba;
      }

      .cls-3 {
        fill: #fee65a;
      }

      .cls-4 {
        fill: #fff;
      }

      .cls-5 {
        fill: #f0993b;
      }

      .cls-6 {
        fill: #ef4633;
      }

      .cls-7 {
        fill: #ffd230;
      }

      .cls-8 {
        fill: #8cc640;
      }

      .cls-9 {
        fill: #fff9ea;
      }

      .cls-9, .cls-10 {
        fill-rule: evenodd;
      }

      .cls-10 {
        fill: #fff1ab;
      }
    </style>
  </defs>
  <g id="LOGOS">
    <g id="SUN_COLOR" data-name="SUN / COLOR">
      <g id="_1" data-name="1">
        <g>
          <path class="cls-5" d="m134.36,128.74l.25.39-.25-.39Z"/>
          <g>
            <g>
              <g>
                <circle class="cls-5" cx="309.53" cy="183.13" r="177.25" transform="translate(-.75 1.28) rotate(-.24)"/>
                <path class="cls-1" d="m309.53,366.25c-100.98,0-183.13-82.15-183.13-183.13S208.55,0,309.53,0s183.13,82.15,183.13,183.13-82.15,183.13-183.13,183.13Zm0-354.5c-94.5,0-171.37,76.88-171.37,171.37s76.88,171.37,171.37,171.37,171.37-76.88,171.37-171.37S404.03,11.75,309.53,11.75Z"/>
              </g>
              <g>
                <ellipse class="cls-7" cx="309.53" cy="183.13" rx="161.56" ry="156.17"/>
                <path class="cls-3" d="m309.53,345.71c-90.44,0-164.02-72.93-164.02-162.58S219.09,20.55,309.53,20.55s164.02,72.93,164.02,162.58-73.58,162.58-164.02,162.58Zm0-312.35c-83.38,0-151.21,67.18-151.21,149.77s67.83,149.77,151.21,149.77,151.21-67.18,151.21-149.77S392.91,33.36,309.53,33.36Z"/>
              </g>
              <path class="cls-10" d="m411.08,328.41l-42.61-34.46c-1.94-1.57-4.83-.1-4.7,2.39l2.83,54.73c.15,2.95-3.69,4.2-5.3,1.72l-29.88-45.94c-1.36-2.09-4.56-1.59-5.21.82l-14.22,52.92c-.77,2.85-4.81,2.85-5.57,0l-14.22-52.92c-.65-2.41-3.84-2.92-5.21-.82l-29.88,45.94c-1.61,2.47-5.45,1.22-5.3-1.72l2.83-54.73c.13-2.49-2.76-3.96-4.7-2.39l-42.61,34.46c-2.29,1.86-5.57-.52-4.51-3.28l19.61-51.18c.89-2.33-1.4-4.62-3.73-3.73l-51.18,19.6c-2.76,1.06-5.13-2.22-3.28-4.51l34.46-42.61c1.57-1.94.1-4.83-2.39-4.7l-54.73,2.83c-2.95.15-4.2-3.69-1.72-5.3l45.94-29.88c2.09-1.36,1.59-4.56-.82-5.21l-52.92-14.22c-2.85-.77-2.85-4.81,0-5.57l52.92-14.22c2.41-.65,2.92-3.84.82-5.21l-45.94-29.88c-2.47-1.61-1.22-5.45,1.72-5.3l54.73,2.83c2.49.13,3.96-2.76,2.39-4.7l-34.46-42.61c-1.86-2.29.52-5.57,3.28-4.51l51.18,19.61c2.33.89,4.62-1.4,3.73-3.73l-19.6-51.18c-1.06-2.76,2.22-5.13,4.51-3.28l42.61,34.46c1.94,1.57,4.83.1,4.7-2.39l-2.83-54.73c-.15-2.95,3.69-4.2,5.3-1.72l29.88,45.94c1.36,2.09,4.56,1.59,5.21-.82l14.22-52.93c.77-2.85,4.81-2.85,5.57,0l14.22,52.92c.65,2.41,3.84,2.92,5.21.82l29.88-45.94c1.61-2.47,5.45-1.22,5.3,1.72l-2.83,54.73c-.13,2.49,2.76,3.96,4.7,2.39l42.61-34.46c2.29-1.86,5.57.52,4.51,3.28l-19.61,51.18c-.89,2.33,1.4,4.62,3.73,3.73l51.18-19.6c2.76-1.06,5.13,2.22,3.28,4.51l-34.46,42.61c-1.57,1.94-.1,4.83,2.39,4.7l54.73-2.83c2.95-.15,4.2,3.69,1.72,5.3l-45.94,29.88c-2.09,1.36-1.59,4.56.82,5.21l50.07,13.45c3.01.81,2.78,5.16-.31,5.64l-55.71,8.59c-2.58.4-3.35,3.75-1.19,5.23l52.82,36.25c2.4,1.65,1.13,5.41-1.78,5.26l-55.24-2.86c-2.49-.13-3.96,2.76-2.39,4.7l34.46,42.61c1.86,2.29-.52,5.57-3.28,4.51l-51.18-19.61c-2.33-.89-4.62,1.4-3.73,3.73l19.6,51.18c1.06,2.76-2.22,5.13-4.51,3.28Z"/>
            </g>
            <polygon class="cls-9" points="394.09 289.3 348.15 259.89 350.82 311.54 322.63 268.18 309.21 318.13 295.79 268.18 267.59 311.53 270.26 259.89 238.59 281.82 248.55 244.11 200.25 262.61 232.77 222.4 181.12 225.07 224.48 196.87 174.53 183.45 224.48 170.03 181.12 141.83 232.77 144.5 200.25 104.29 248.55 122.79 232.02 74.49 270.26 107.01 267.59 55.36 295.79 98.72 309.21 48.77 322.63 98.72 350.83 55.37 348.15 107.01 388.37 74.49 369.87 122.79 412.73 111.01 385.65 144.5 437.29 141.83 393.94 170.03 443.88 183.45 393.94 196.87 437.29 225.07 385.64 222.4 418.16 262.61 369.87 244.11 394.09 289.3"/>
          </g>
        </g>
        <path class="cls-4" d="m238.08,237.88c-.51.01-1.02.05-1.52.12l-14.66,1.8-.5-37.28c1.82,1.18,3.38,1.99,4.79,2.54-.44,2.07-.42,4.24.11,6.33l3.81,15.03c.93,3.68,3.31,6.82,6.6,8.7.7.4,1.43.74,2.18,1.02-.29.57-.56,1.15-.82,1.73Z"/>
        <g id="_2" data-name="2">
          <g>
            <path class="cls-1" d="m559.08,181.27c-1.14-3-2.63-10.36-3.82-16.27-.87-4.3-1.76-8.75-2.72-12.72l-.49-2.02c-3.16-13.1-5.88-24.41-12.07-31.63-9.16-10.68-28.01-16.32-47.69-16.32-.37,0-.73,0-1.08,0-.15-.67-.34-1.33-.57-1.96l-5.24-14.51c-1.67-4.62-5.46-8.28-10.13-9.79-1.59-.51-3.25-.77-4.92-.77-3.24,0-6.36.96-9.03,2.79-14.43,9.86-25.77,20.82-33.72,32.58-2.07-1.22-4.4-1.97-6.79-2.17l-19.42-1.64c-5.07-.42-10.03,1.61-13.34,5.35-3.33-4.11-8.59-6.35-13.93-5.85l-21.61,2.03c-2.69.25-5.27,1.19-7.5,2.71-2.88-1.45-6.17-2-9.33-1.57l-17.6,2.38c-3.61.49-6.91,2.18-9.42,4.79-2.52-1.74-5.46-2.71-8.55-2.81l-16.52-.53c-4.33-.15-8.51,1.47-11.63,4.48-.2.19-.4.4-.6.62-10.85-9.5-24.95-11.57-36.37-12.18l.71-6.49c.46-4.21-.8-8.52-3.47-11.81-2.66-3.29-6.61-5.43-10.83-5.86l-16.78-1.7c-4.24-.43-8.52.88-11.79,3.58-3.27,2.7-5.37,6.67-5.75,10.9l-1.55,17.07c-3.27-3.68-8.17-5.75-13.19-5.37l-17.33,1.29c-4.82.36-9.17,2.88-11.9,6.75l-.95-5.28c1.95-.62,3.87-1.4,5.7-2.32,12.38-6.24,21.15-22.39,19.15-35.27-1.15-7.41-7.18-12.96-14.66-13.5-.52-.04-1.05-.06-1.59-.06-4.01,0-11.18,1.33-18.62,5.03-1.28-4.13-2.95-7.99-4.17-10.59-5.55-11.82-9.54-14.72-11.05-15.81-2.75-1.99-6-3.05-9.39-3.05-3.85,0-7.57,1.39-10.48,3.91-1.89,1.64-4.24,4.47-6.57,7.9-4.61-5.5-11.14-10.01-19.41-13.42-3.92-1.61-8.37-1.6-12.28.04-3.9,1.63-7.04,4.82-8.64,8.73-2.45,6.04-2.83,16.06-.94,24.95.06.3.13.61.2.9-2.17-.33-4.03-.49-5.53-.49-.53,0-1.02.02-1.51.05-7.39.51-13.42,5.97-14.66,13.27-.73,4.29.13,9.52,2.56,15.57-5.39,1.07-11.11,3.15-17.43,6.33-2.07,1.04-3.76,2.15-5.18,3.37-3.58,3.1-5.59,7.59-5.52,12.32.07,4.73,2.2,9.16,5.86,12.16,1.46,1.19,2.97,2.08,4.52,2.96l.17.09c4.73,2.68,9.34,4.76,13.74,6.2-1.59,2.2-3.16,4.52-4.65,6.93l-.16.26c-4.37,6.83-4.95,13.29-1.73,19.2,1.83,3.33,4.58,5.81,8.2,7.38,4.81,5.34,30.75,1.25,35.47-.66,7.82-3.18,19.16-6.54,25.46-16.41,4.53,2.73,9.41,4.74,14.53,5.98,3.5,15.02,7.69,33.06,7.9,33.95,1.59,6.95,7.67,12.06,14.8,12.42l20,1c7.07.36,13.51-4,15.87-10.6l5.07-14.22,6.6,13.95c1.08,2.27,2.69,4.27,4.68,5.81,0,.34,0,.68.01,1.01l2.95,64.91c.15,3.27,1.28,6.38,3.27,8.98l5.01,6.56c3.28,4.29,8.65,6.69,14.06,6.23l36.06-3.03c1.14-.1,2.28-.32,3.39-.66,2.32,1.75,5.05,2.83,7.91,3.14,2.04.22,4.18.33,6.37.33,7.35,0,14.75-1.25,20.83-3.51.32-.12.63-.24.95-.37,0,0,.02.01.03.02,3.72,2.76,8.66,3.79,13.19,2.72l14.93-3.51c.21-.05.41-.11.6-.17.93.33,1.87.58,2.78.73l15.15,2.46c.85.14,1.71.21,2.57.21,4.01,0,7.85-1.49,10.81-4.2,1.06-.98,1.98-2.08,2.75-3.3,2.43,2.12,5.47,3.48,8.69,3.85l15.41,1.79c3.54.41,7.14-.38,10.17-2.23,1.81,1.92,3.92,3.9,7.06,6.62,2.71,2.35,6.17,3.73,9.75,3.9l18.92.88c.25.01.49.02.74.02,3.65,0,7.22-1.26,10.06-3.56,13.32-10.77,20.87-26.66,22.46-47.22.96-12.4-3.53-27-12.42-40.87.88.46,1.8.85,2.76,1.14l9.59,2.95c3.14.97,6.55.94,9.67-.08,5.29-1.73,11.57-4.19,18.22-9.39l6.75,4.86c2.62,1.89,5.71,2.93,8.94,3.01,9.52.25,18.47-1.7,26.74-5.73.44.38.89.73,1.36,1.06,2.69,1.87,5.85,2.86,9.13,2.86,1.11,0,4.38-.12,5.46-.34l14.43-3.04c4.58-.97,8.5-3.88,10.74-7.99,2.24-4.11,4.02-8.98,2.35-13.36Z"/>
            <path class="cls-4" d="m554.76,176.66c-1.14-3-2.63-10.36-3.82-16.27-.87-4.3-1.76-8.75-2.72-12.72l-.49-2.02c-3.16-13.1-5.88-24.41-12.07-31.63-9.16-10.68-29.45-16.32-49.13-16.32-.37,0-.73,0-1.08,0-.15-.67-.34-1.33-.57-1.96l-5.24-14.51c-1.67-4.62-5.46-8.28-10.13-9.79-1.59-.51-3.25-.77-4.92-.77-3.24,0-6.36.96-9.03,2.79-14.43,9.86-22.17,20.82-30.12,32.58-2.07-1.22-4.4-1.97-6.79-2.17l-19.42-1.64c-5.07-.42-10.03,1.61-13.34,5.35-3.33-4.11-8.59-6.35-13.93-5.85l-21.61,2.03c-2.69.25-5.27,1.19-7.5,2.71-2.88-1.45-6.17-2-9.33-1.57l-17.6,2.38c-3.61.49-6.91,2.18-9.42,4.79-2.52-1.74-5.46-2.71-8.55-2.81l-16.52-.53c-4.33-.15-8.51,1.47-11.63,4.48-.2.19-.4.4-.6.62-10.85-9.5-26.39-11.57-37.81-12.18l.71-6.49c.46-4.21-.8-8.52-3.47-11.81-2.66-3.29-5.17-5.43-9.39-5.86l-16.78-1.7c-4.24-.43-8.52.88-11.79,3.58-3.27,2.7-5.37,6.67-5.75,10.9l-1.55,17.07c-3.27-3.68-8.17-5.75-13.19-5.37l-17.33,1.29c-4.82.36-9.17,2.88-11.9,6.75l-.95-5.28c1.95-.62,3.87-1.4,5.7-2.32,12.38-6.24,21.15-22.39,19.15-35.27-1.15-7.41-7.18-12.96-14.66-13.5-.52-.04-1.05-.06-1.59-.06-4.01,0-11.18,1.33-18.62,5.03-1.28-4.13-2.95-7.99-4.17-10.59-5.55-11.82-9.54-14.72-11.05-15.81-2.75-1.99-6-3.05-9.39-3.05-3.85,0-7.57,1.39-10.48,3.91-1.89,1.64-4.24,4.47-6.57,7.9-4.61-5.5-11.14-10.01-19.41-13.42-3.92-1.61-8.37-1.6-12.28.04-3.9,1.63-7.04,4.82-8.64,8.73-2.45,6.04-2.83,16.06-.94,24.95.06.3.13.61.2.9-2.17-.33-4.03-.49-5.53-.49-.53,0-1.02.02-1.51.05-7.39.51-13.42,5.97-14.66,13.27-.73,4.29.13,9.52,2.56,15.57-5.39,1.07-11.11,2.43-17.43,5.61-2.07,1.04-3.76,2.15-5.18,3.37C1.95,102.66-.06,107.15,0,111.88c.07,4.73,2.2,9.16,5.86,12.16,1.46,1.19,2.97,2.08,4.52,2.96l.17.09c4.73,2.68,9.34,4.76,13.74,6.2-1.59,2.2-3.16,4.52-4.65,6.93l-.16.26c-4.37,6.83-4.95,13.29-1.73,19.2,1.83,3.33,4.58,5.81,8.2,7.38,4.81,5.34,30.75,1.97,35.47.06,7.82-3.18,19.16-6.54,25.46-16.41,4.53,2.73,9.41,4.74,14.53,5.98,3.5,15.02,7.69,33.06,7.9,33.95,1.59,6.95,7.67,12.06,14.8,12.42l20,1c7.07.36,13.51-4,15.87-10.6l5.07-14.22,6.6,13.95c1.08,2.27,2.69,4.27,4.68,5.81,0,.34,0,.68.01,1.01l2.95,64.91c.15,3.27,1.28,6.38,3.27,8.98l5.01,6.56c3.28,4.29,8.65,6.69,14.06,6.23l36.06-3.03c1.14-.1,2.28-.32,3.39-.66,2.32,1.75,5.05,2.83,7.91,3.14,2.04.22,4.18.33,6.37.33,7.35,0,14.75-1.25,20.83-3.51.32-.12.63-.24.95-.37,0,0,.02.01.03.02,3.72,2.76,8.66,3.79,13.19,2.72l14.93-3.51c.21-.05.41-.11.6-.17.93.33,1.87.58,2.78.73l15.15,2.46c.85.14,1.71.21,2.57.21,4.01,0,7.85-1.49,10.81-4.2,1.06-.98,1.98-2.08,2.75-3.3,2.43,2.12,5.47,3.48,8.69,3.85l15.41,1.79c3.54.41,7.14-.38,10.17-2.23,1.81,1.92,3.92,3.9,7.06,6.62,2.71,2.35,6.17,3.73,9.75,3.9l18.92.88c.25.01.49.02.74.02,3.65,0,7.22-1.26,10.06-3.56,13.32-10.77,20.87-26.66,22.46-47.22.96-12.4-3.53-27-12.42-40.87.88.46,1.8.85,2.76,1.14l9.59,2.95c3.14.97,6.55.94,9.67-.08,5.29-1.73,11.57-4.19,18.22-9.39l6.75,4.86c2.62,1.89,5.71,2.93,8.94,3.01,9.52.25,18.47-1.7,26.74-5.73.44.38.89.73,1.36,1.06,2.69,1.87,5.85,2.86,9.13,2.86,1.11,0,2.22-.12,3.3-.34l16.59-3.04c4.58-.97,6.34-3.88,8.58-7.99,2.24-4.11,4.02-8.98,2.35-13.36Z"/>
          </g>
          <g>
            <path class="cls-6" d="m524.24,125.17c-11.75-13.69-38.48-10.37-39.71-10.44l.16,13.33c27.8-1.95,29.33,8.79,29.33,8.79,0,0-17.63,2.43-25.05,15.63-4.64,8.25-6.74,17.2-8.37,29.21l8.67,6.24c15.4.39,26.89-7.37,32.1-14.21l2.36-3.11.96,3.81c1.2,4.77.99,8.95,1.4,11.7l14.43-3.04c-2.55-6.7-4.73-20.99-7.14-30.91-2.78-11.47-5.24-22.43-9.15-27Zm-5.46,31.97c-.34,1.75-10.55,15.18-21.25,16.06l-1.39.11-.52-1.33c-.71-1.84,1.85-10.38,6.26-15.16,4.67-5.06,8.57-7.52,13.07-8.23l1.66-.26,2.25,8.35-.09.45Z"/>
            <path class="cls-6" d="m203.04,92.46l-7.03,77.37-22.45-51.16-17.33,1.3-18.92,48.53-12.74-70.5-18,5.44,6.05,27.59s-10.34-.81-22.81-17.62l-7.77,7.9c13.43,24.06,34.53,21.42,34.53,21.42,0,0,10.47,44.99,10.48,45.06l20,1,18.07-50.64,23.14,48.9,21.6-2.41,9.94-90.48-16.78-1.7Z"/>
            <path class="cls-6" d="m229.66,118.19l-2.97.07-1.02,14.01,3.64-.43c6.19-.72,14.19.62,17.6,3.06l3.16,2.25-3.78,1.14c-9.2,2.77-16.28,9.15-21.04,18.96-3.69,7.64-3.18,13.83-3.34,24.41,0,0,9.1,7.72,10.97,7.67,17.5-.45,23.45-8.59,28.08-16.01l2.58-4.13,1.07,4.67c.02.07.81,7.61,2.82,14.2l16.67,1.5c-.62-1.69-3.3-11.17-8.11-29.08-8.25-30.68-12.43-41.45-46.32-42.28Zm27.22,36.43c-.6,5.16-2.23,7.98-5.66,12.35-2.54,3.23-8.88,7.2-13.57,7.67l-2.48.25.32-2.39c.84-6.27,1.91-8.55,2.77-10.38l.15-.31c2.97-6.38,8.55-10.92,14.92-12.15l1.61-.31,2,4.79-.06.48Z"/>
            <path class="cls-6" d="m472.65,136.35c-6.59-9.07-17.92-14.4-17.92-14.4,0,0,3.33-8.67,20.86-20.04l-5.24-14.51c-22.42,15.32-35.77,32.84-39.69,52.09-4.46,21.9,3.84,38.77,9.74,47.79l9.59,2.95c7.36-2.4,12.45-5.15,18.84-11.86,7.09-7.42,10.68-14.82,10.68-22.01,0-7.76-2.65-14.23-6.86-20.03Zm-9.21,23.96c-2.1,6.12-7.02,11.32-12.24,12.95l-1.46.46-.81-1.3c-1.91-3.06-3.88-9.96-4.12-14.49-.61-9.2,1.87-17.99,3.33-20.65l.91-1.65,1.7.82c4.09,1.98,7.47,4.67,10.95,8.74l.12.16c2.92,4.21,3.5,9.52,1.63,14.96Z"/>
            <path class="cls-6" d="m336.63,165.79s-2.65-12.14,1.2-44.3l-17.6,2.38c-.81,7.02-.75,31,1.93,46.77l.41,1.48-1.35.77c-6.71,3.83-10.52,2.84-14.48-1.52-8.49-9.35-8.07-34.82-7.13-45.38l-16.52-.53c-.02,7.76.34,36.42,6.55,48.36,5.58,10.72,12.07,15.94,19.84,15.97h0c2.69,0,6.46-.2,8.45-.77l.19-.04c4.28-.81,8.95-3.45,11.46-4.87l2.01-1.12s1.49,6.15,7.82,9.15l5.71-10.81s-1.43-1.2-2.87-2.77-1.43-2.28-1.43-2.28l6.15-5.3-3.36-10.73c-1.25.94-6.97,5.56-6.97,5.56Z"/>
            <path class="cls-6" d="m408.27,184.02l15.31-1.91s-2.44-39.53-4.12-61.56l-19.42-1.64c-1.93,7.69-11.36,43.07-11.36,43.07l-13.06-43.58-21.61,2.03-.66,69.96,15.72,1.13c.35-6.18-2.73-60.15-2.73-60.15l14.57,47.58,15.02-2.18,12.89-43.87-.55,51.13Z"/>
          </g>
          <g>
            <path class="cls-8" d="m73.79,111.26h.16c2.23,0,7.31-1.84,8.64-5.23.21-.55,2.02-5.49-.44-10.76-2.17-4.64-6.96-8.22-14.25-10.67l-.21-.08c-4.89-2.32-18.96-6.1-23.77-6.1-.17,0-.3,0-.41.01-.32,1.86,1.47,8.46,6.45,16.04,7.34,11.17,14.47,16.19,23.83,16.79Z"/>
            <path class="cls-8" d="m38.42,154.39c8.67-.03,35.06-.12,39.1-16.2.8-3.21-1.12-8.31-3.68-9.75-1.82-1.02-4.77-2.24-8.52-2.24-6.9,0-17.69,4.16-29.97,23.97l-.23.36c-.99,1.55-1.39,2.53-1.17,2.92.02.04.56.94,4.39.94v1.81s0,0,0,0l.08-1.81Z"/>
            <path class="cls-8" d="m105.61,92.71h0c2.32,0,5.73-.71,8.83-4.09,4.18-4.54,4.46-11.01,3.6-19.34-.76-7.35-7.86-21.48-10.51-23.39-2.58,2.23-11.88,15.56-13.5,28.44-.87,6.93.69,12.31,4.63,15.98,1.19,1.1,3.72,2.39,6.94,2.39Z"/>
            <path class="cls-8" d="m40.47,121.17c3.97,0,7.04-1.17,9.4-3.59,1.21-1.24,2.07-2.99-.78-6.51-5.22-6.45-15.24-6.1-29.03.85-1.06.54-1.62.93-1.9,1.18.52.42,1.54,1.01,2.27,1.42l.18.1c5.27,2.99,13,6.55,19.86,6.55h0Z"/>
            <path class="cls-8" d="m64.88,58.67c1.11,5.2,3.72,11.98,9.84,14.71.93.41,1.8.62,2.6.62h0c1.84,0,2.61-1.09,2.75-1.31,1.96-3.14,3.56-8.84,1.65-14.58-2.09-6.27-7.71-11.32-16.72-15.03-.86,2.11-1.6,8.59-.11,15.59Z"/>
            <path class="cls-8" d="m128.2,86.54c-.09,1.04.08,3.38,1.24,3.92.82.39,1.92.59,3.17.59h0c1.71,0,4.5-.38,8.07-2.18,6.21-3.13,11.46-12.54,10.54-18.53-.12,0-.27-.01-.44-.01-5.42,0-21.61,5.58-22.58,16.22Z"/>
          </g>
          <g>
            <polygon class="cls-2" points="208.9 254.43 209.79 197.37 192.32 199.99 195.28 264.9 200.28 271.45 236.35 268.42 238.55 250.69 208.9 254.43"/>
            <path class="cls-2" d="m398.5,188.83s-12.12,1.86-15.18,2.98c12.95,9.94,20.87,21.26,20.93,21.4l.18.42s-27.71,8.62-27.7,31.58c0,6.73-.23,11.16,3.63,17.89,2.88,5.09,5.12,7.68,11.38,13.11l18.92.88c10.51-8.5,15.4-20.91,16.57-36.01,1.08-14.05-8.89-35.43-28.73-52.24Zm11.58,38.95c5.48,25.85-7.18,35.35-7.18,35.35-.12-.06-11.39-2.52-12.11-15.3-.98-17.48,19.29-20.04,19.29-20.04Z"/>
            <path class="cls-2" d="m298.39,249.84c-.41-2.22-.79-4.31-1.14-6.27-2.55-14.19-2.91-24.89-10.22-33.58-5.31-6.31-15.83-9.86-25.71-9.86s-17.79,2.57-21.76,3.45l3.51,13.96c3.99-1.13,29.1-8.21,34.85,6.19l.21.6-.64.05c-.22.02-22.22,2.01-28.97,15.59-4.02,6.7-4.35,17.53-4.48,21.75l-.02.56,6.66,8.67c1.48.16,3.05.24,4.66.24,5.41,0,10.97-.91,15.24-2.5,5.63-2.09,11-7.01,11.06-7.06l3.45-3,.59,5.25c.02.18.09.51.17.96.25,1.29.67,3.4.81,5.64l14.93-3.51c-.28-1.95-.75-4.35-1.44-7.85-.49-2.47-1.08-5.49-1.78-9.27Zm-15.52-5.34s-1.73,3.17-8.37,8.6c-6.33,5.18-13.49,5.24-13.8,5.24h-3.06s.4-3.02.4-3.02c.02-.18.6-4.39,2.96-8.91,3.3-6.33,11.16-10.65,17.46-11.17l2.92-.2,1.56,9.31-.07.15Z"/>
            <path class="cls-2" d="m324.51,201.82l-16.61.79,3.33,64.68,15.15,2.46-3.54-47.95,27.63,44.41,15.41,1.79c.74-11.38,2.01-48.59,2.95-63.11l-16.45-.67c-.1,9.58,1.36,41.15,1.36,41.46l-29.23-43.86Z"/>
          </g>
        </g>
      </g>
    </g>
  </g>
</svg>